<?xml version="1.0" encoding="UTF-8" standalone="no"?>
<!-- Created with Inkscape (http://www.inkscape.org/) -->

<svg
   xmlns:dc="http://purl.org/dc/elements/1.1/"
   xmlns:cc="http://creativecommons.org/ns#"
   xmlns:rdf="http://www.w3.org/1999/02/22-rdf-syntax-ns#"
   xmlns:svg="http://www.w3.org/2000/svg"
   xmlns="http://www.w3.org/2000/svg"
   xmlns:xlink="http://www.w3.org/1999/xlink"
   xmlns:sodipodi="http://sodipodi.sourceforge.net/DTD/sodipodi-0.dtd"
   xmlns:inkscape="http://www.inkscape.org/namespaces/inkscape"
   width="32"
   height="32"
   id="svg6599"
   sodipodi:version="0.32"
   inkscape:version="0.47 r22583"
   version="1.0"
   sodipodi:docname="GLUON.Creator.11.256.svg"
   inkscape:output_extension="org.inkscape.output.svg.inkscape"
   inkscape:export-filename="/home/it-s/gluon.creator.128.png"
   inkscape:export-xdpi="90"
   inkscape:export-ydpi="90">
  <sodipodi:namedview
     id="base"
     pagecolor="#ffffff"
     bordercolor="#666666"
     borderopacity="1.0"
     gridtolerance="10000"
     guidetolerance="10"
     objecttolerance="10"
     inkscape:pageopacity="0.0"
     inkscape:pageshadow="2"
     inkscape:zoom="3.96875"
     inkscape:cx="22.80315"
     inkscape:cy="34.901531"
     inkscape:document-units="px"
     inkscape:current-layer="layer1"
     showgrid="false"
     inkscape:window-width="1280"
     inkscape:window-height="739"
     inkscape:window-x="0"
     inkscape:window-y="-3"
     showguides="false"
     inkscape:guide-bbox="true"
     inkscape:window-maximized="1">
    <sodipodi:guide
       id="guide5391"
       position="30.042044,64.256595"
       orientation="0,1" />
    <sodipodi:guide
       id="guide5393"
       position="64.256595,52.990828"
       orientation="1,0" />
    <sodipodi:guide
       id="guide5399"
       position="7.0932605,87.622629"
       orientation="1,0" />
    <sodipodi:guide
       id="guide5401"
       position="25.035037,121.41993"
       orientation="0,1" />
    <sodipodi:guide
       id="guide5403"
       position="121.00268,57.997835"
       orientation="1,0" />
    <sodipodi:guide
       id="guide5405"
       position="81.36387,7.5105111"
       orientation="0,1" />
    <sodipodi:guide
       id="guide5415"
       position="73.436108,114.74392"
       orientation="0,1" />
    <sodipodi:guide
       id="guide5417"
       position="14.186521,54.24258"
       orientation="1,0" />
    <sodipodi:guide
       id="guide5419"
       position="113.90942,55.911582"
       orientation="1,0" />
    <sodipodi:guide
       id="guide5421"
       position="93.881388,15.021022"
       orientation="0,1" />
  </sodipodi:namedview>
  <defs
     id="defs6601">
    <linearGradient
       id="linearGradient5563">
      <stop
         style="stop-color:#ffffff;stop-opacity:1;"
         offset="0"
         id="stop5565" />
      <stop
         style="stop-color:#d7dce1;stop-opacity:1"
         offset="1"
         id="stop5567" />
    </linearGradient>
    <marker
       style="overflow:visible"
       id="Arrow1Mend"
       refX="0"
       refY="0"
       orient="auto"
       inkscape:stockid="Arrow1Mend">
      <path
         transform="matrix(-0.4,0,0,-0.4,-4,0)"
         style="fill-rule:evenodd;stroke:#000000;stroke-width:1pt;marker-start:none"
         d="M 0,0 5,-5 -12.5,0 5,5 0,0 z"
         id="path4643" />
    </marker>
    <linearGradient
       id="linearGradient4331">
      <stop
         id="stop4333"
         offset="0"
         style="stop-color:#ffffff;stop-opacity:1;" />
      <stop
         id="stop4335"
         offset="1"
         style="stop-color:#dcdcdc;stop-opacity:1;" />
    </linearGradient>
    <linearGradient
       id="linearGradient7407"
       inkscape:collect="always">
      <stop
         id="stop7409"
         offset="0"
         style="stop-color:#757574;stop-opacity:1;" />
      <stop
         id="stop7411"
         offset="1"
         style="stop-color:#757574;stop-opacity:0;" />
    </linearGradient>
    <linearGradient
       id="linearGradient7264"
       inkscape:collect="always">
      <stop
         id="stop7266"
         offset="0"
         style="stop-color:#91989a;stop-opacity:1" />
      <stop
         id="stop7268"
         offset="1"
         style="stop-color:#babdb6;stop-opacity:1" />
    </linearGradient>
    <linearGradient
       id="linearGradient3333">
      <stop
         id="stop3335"
         offset="0"
         style="stop-color:#818181;stop-opacity:0;" />
      <stop
         id="stop3337"
         offset="1"
         style="stop-color:#dadada;stop-opacity:1;" />
    </linearGradient>
    <linearGradient
       id="linearGradient3495">
      <stop
         style="stop-color:#dbdbdb;stop-opacity:1;"
         offset="0"
         id="stop3497" />
      <stop
         style="stop-color:#4b4b4b;stop-opacity:1;"
         offset="1"
         id="stop3499" />
    </linearGradient>
    <inkscape:perspective
       id="perspective195"
       inkscape:persp3d-origin="64 : 42.666667 : 1"
       inkscape:vp_z="128 : 64 : 1"
       inkscape:vp_y="0 : 1000 : 0"
       inkscape:vp_x="0 : 64 : 1"
       sodipodi:type="inkscape:persp3d" />
    <linearGradient
       id="linearGradient7839">
      <stop
         style="stop-color:#003057;stop-opacity:1"
         offset="0"
         id="stop7841" />
      <stop
         style="stop-color:#003957;stop-opacity:0"
         offset="1"
         id="stop7843" />
    </linearGradient>
    <linearGradient
       id="linearGradient7827">
      <stop
         id="stop7829"
         offset="0"
         style="stop-color:#3bc4ff;stop-opacity:1;" />
      <stop
         id="stop7831"
         offset="1"
         style="stop-color:#004f97;stop-opacity:1;" />
    </linearGradient>
    <linearGradient
       id="linearGradient7771">
      <stop
         style="stop-color:#02cdff;stop-opacity:0;"
         offset="0"
         id="stop7773" />
      <stop
         style="stop-color:#ffffff;stop-opacity:1;"
         offset="1"
         id="stop7775" />
    </linearGradient>
    <linearGradient
       id="linearGradient7759">
      <stop
         id="stop7761"
         offset="0"
         style="stop-color:#ffbd50;stop-opacity:1;" />
      <stop
         id="stop7763"
         offset="1"
         style="stop-color:#e35400;stop-opacity:1;" />
    </linearGradient>
    <linearGradient
       id="linearGradient7613">
      <stop
         style="stop-color:#ff3355;stop-opacity:1;"
         offset="0"
         id="stop7615" />
      <stop
         style="stop-color:#8e001c;stop-opacity:1;"
         offset="1"
         id="stop7617" />
    </linearGradient>
    <linearGradient
       id="linearGradient4909-738">
      <stop
         style="stop-color:#181818;stop-opacity:1;"
         offset="0"
         id="stop19692" />
      <stop
         id="stop19694"
         offset="0.5"
         style="stop-color:#181818;stop-opacity:0;" />
      <stop
         style="stop-color:#ffffff;stop-opacity:0;"
         offset="0.5"
         id="stop19696" />
      <stop
         style="stop-color:#ffffff;stop-opacity:1;"
         offset="1"
         id="stop19698" />
    </linearGradient>
    <linearGradient
       id="linearGradient3179">
      <stop
         id="stop3181"
         offset="0"
         style="stop-color:#ffffff;stop-opacity:1;" />
      <stop
         id="stop3183"
         offset="1"
         style="stop-color:#ffffff;stop-opacity:0;" />
    </linearGradient>
    <radialGradient
       gradientTransform="matrix(1.4463277,-0.3710966,0.3395064,1.3232065,-517.58895,-165.02651)"
       gradientUnits="userSpaceOnUse"
       r="13.843195"
       fy="983.29572"
       fx="411.70154"
       cy="983.29572"
       cx="411.70154"
       id="radialGradient7586"
       xlink:href="#linearGradient7613"
       inkscape:collect="always" />
    <radialGradient
       r="13.843195"
       fy="983.29572"
       fx="411.70154"
       cy="983.29572"
       cx="411.70154"
       gradientTransform="matrix(1.4463277,-0.3710966,0.3395064,1.3232065,-517.58895,-165.02651)"
       gradientUnits="userSpaceOnUse"
       id="radialGradient5856"
       xlink:href="#linearGradient7613"
       inkscape:collect="always" />
    <radialGradient
       r="13.843195"
       fy="983.29572"
       fx="411.70154"
       cy="983.29572"
       cx="411.70154"
       gradientTransform="matrix(1.4463277,-0.3710966,0.3395064,1.3232065,-517.58895,-165.02651)"
       gradientUnits="userSpaceOnUse"
       id="radialGradient5860"
       xlink:href="#linearGradient7613"
       inkscape:collect="always" />
    <radialGradient
       gradientUnits="userSpaceOnUse"
       gradientTransform="matrix(1,0,0,0.94761,0,1.8890593)"
       r="17.549622"
       fy="36.057655"
       fx="-34.018669"
       cy="36.057655"
       cx="-34.018669"
       id="radialGradient3493"
       xlink:href="#linearGradient3495"
       inkscape:collect="always" />
    <linearGradient
       gradientUnits="userSpaceOnUse"
       y2="106.50848"
       x2="-19.916883"
       y1="106.50848"
       x1="-46.511459"
       id="linearGradient3331"
       xlink:href="#linearGradient7827"
       inkscape:collect="always" />
    <radialGradient
       r="1.2030609"
       fy="1033.2708"
       fx="189.0162"
       cy="1033.2708"
       cx="189.0162"
       gradientTransform="matrix(1.1194781,-5.8714698e-5,5.8939875e-5,1.1238627,-22.644198,-127.97261)"
       gradientUnits="userSpaceOnUse"
       id="radialGradient7522"
       xlink:href="#linearGradient7264"
       inkscape:collect="always" />
    <radialGradient
       r="1.7302274"
       fy="1031.8762"
       fx="189.53488"
       cy="1031.8762"
       cx="189.53488"
       gradientTransform="matrix(1.1725235,-0.68057109,0.57376484,0.98851217,-624.6997,140.78069)"
       gradientUnits="userSpaceOnUse"
       id="radialGradient7524"
       xlink:href="#linearGradient7264"
       inkscape:collect="always" />
    <radialGradient
       r="2.5110433"
       fy="1030.6647"
       fx="190.26654"
       cy="1030.6647"
       cx="190.26654"
       gradientTransform="matrix(1.2593344,-0.6067473,0.4985051,1.0346722,-563.0389,79.322807)"
       gradientUnits="userSpaceOnUse"
       id="radialGradient7526"
       xlink:href="#linearGradient7264"
       inkscape:collect="always" />
    <radialGradient
       r="3.3483057"
       fy="1027.0809"
       fx="191.65448"
       cy="1027.0809"
       cx="191.65448"
       gradientTransform="matrix(1.3199666,-0.52969231,0.40967126,1.0208802,-482.08858,80.072238)"
       gradientUnits="userSpaceOnUse"
       id="radialGradient7528"
       xlink:href="#linearGradient7264"
       inkscape:collect="always" />
    <radialGradient
       r="4.154561"
       fy="1023.4946"
       fx="192.46072"
       cy="1023.4946"
       cx="192.46072"
       gradientTransform="matrix(1.8330402,-0.6805346,0.23685783,0.63798361,-402.75023,501.49801)"
       gradientUnits="userSpaceOnUse"
       id="radialGradient7530"
       xlink:href="#linearGradient7264"
       inkscape:collect="always" />
    <radialGradient
       r="10.328125"
       fy="1020.7311"
       fx="191.36856"
       cy="1020.7311"
       cx="191.36856"
       gradientTransform="matrix(0.94510521,0.38671355,-0.33631364,0.82193074,356.22014,102.97314)"
       gradientUnits="userSpaceOnUse"
       id="radialGradient7532"
       xlink:href="#linearGradient7264"
       inkscape:collect="always" />
    <linearGradient
       y2="1028.8715"
       x2="188.49951"
       y1="1023.7635"
       x1="188.49951"
       gradientUnits="userSpaceOnUse"
       id="linearGradient7534"
       xlink:href="#linearGradient7407"
       inkscape:collect="always" />
    <linearGradient
       y2="1027.5402"
       x2="188.49951"
       y1="1023.7635"
       x1="188.49951"
       gradientUnits="userSpaceOnUse"
       id="linearGradient7536"
       xlink:href="#linearGradient7407"
       inkscape:collect="always" />
    <linearGradient
       y2="1028.384"
       x2="188.49951"
       y1="1023.0956"
       x1="188.49951"
       gradientUnits="userSpaceOnUse"
       id="linearGradient7538"
       xlink:href="#linearGradient7407"
       inkscape:collect="always" />
    <radialGradient
       r="10.328125"
       fy="1020.7311"
       fx="191.36856"
       cy="1020.7311"
       cx="191.36856"
       gradientTransform="matrix(0.94510521,0.38671355,-0.33631364,0.82193074,322.22014,102.97314)"
       gradientUnits="userSpaceOnUse"
       id="radialGradient7549"
       xlink:href="#linearGradient7264"
       inkscape:collect="always" />
    <radialGradient
       r="4.154561"
       fy="1023.4946"
       fx="192.46072"
       cy="1023.4946"
       cx="192.46072"
       gradientTransform="matrix(1.8330402,-0.6805346,0.23685783,0.63798361,-436.75023,501.49801)"
       gradientUnits="userSpaceOnUse"
       id="radialGradient7553"
       xlink:href="#linearGradient7264"
       inkscape:collect="always" />
    <inkscape:perspective
       sodipodi:type="inkscape:persp3d"
       inkscape:vp_x="0 : 0.5 : 1"
       inkscape:vp_y="0 : 1000 : 0"
       inkscape:vp_z="1 : 0.5 : 1"
       inkscape:persp3d-origin="0.5 : 0.33333333 : 1"
       id="perspective2821" />
    <inkscape:perspective
       sodipodi:type="inkscape:persp3d"
       inkscape:vp_x="0 : 0.5 : 1"
       inkscape:vp_y="0 : 1000 : 0"
       inkscape:vp_z="1 : 0.5 : 1"
       inkscape:persp3d-origin="0.5 : 0.33333333 : 1"
       id="perspective2822" />
    <inkscape:perspective
       sodipodi:type="inkscape:persp3d"
       inkscape:vp_x="0 : 0.5 : 1"
       inkscape:vp_y="0 : 1000 : 0"
       inkscape:vp_z="1 : 0.5 : 1"
       inkscape:persp3d-origin="0.5 : 0.33333333 : 1"
       id="perspective4237" />
    <filter
       id="filter4327"
       inkscape:collect="always"
       color-interpolation-filters="sRGB">
      <feGaussianBlur
         id="feGaussianBlur4329"
         stdDeviation="1.5574144"
         inkscape:collect="always" />
    </filter>
    <inkscape:perspective
       sodipodi:type="inkscape:persp3d"
       inkscape:vp_x="0 : 0.5 : 1"
       inkscape:vp_y="0 : 1000 : 0"
       inkscape:vp_z="1 : 0.5 : 1"
       inkscape:persp3d-origin="0.5 : 0.33333333 : 1"
       id="perspective5364" />
    <filter
       id="filter5696"
       inkscape:collect="always"
       color-interpolation-filters="sRGB">
      <feGaussianBlur
         id="feGaussianBlur5698"
         stdDeviation="1.846875"
         inkscape:collect="always" />
    </filter>
    <filter
       height="1.3839999"
       y="-0.192"
       width="1.3839999"
       x="-0.192"
       id="filter5722"
       inkscape:collect="always"
       color-interpolation-filters="sRGB">
      <feGaussianBlur
         id="feGaussianBlur5724"
         stdDeviation="0.4031496"
         inkscape:collect="always" />
    </filter>
    <filter
       height="1.3869413"
       y="-0.19347064"
       width="1.1276765"
       x="-0.063838251"
       id="filter5746"
       inkscape:collect="always"
       color-interpolation-filters="sRGB">
      <feGaussianBlur
         id="feGaussianBlur5748"
         stdDeviation="2.96"
         inkscape:collect="always" />
    </filter>
    <filter
       height="1.5193357"
       y="-0.25966787"
       width="1.0528882"
       x="-0.026444118"
       id="filter5831"
       inkscape:collect="always"
       color-interpolation-filters="sRGB">
      <feGaussianBlur
         id="feGaussianBlur5833"
         stdDeviation="0.9365625"
         inkscape:collect="always" />
    </filter>
    <radialGradient
       inkscape:collect="always"
       xlink:href="#linearGradient5563"
       id="radialGradient8811"
       gradientUnits="userSpaceOnUse"
       gradientTransform="matrix(-0.74952918,0,0,-0.66557587,77.493284,1714.8905)"
       cx="82.250954"
       cy="975.56055"
       fx="82.250954"
       fy="975.56055"
       r="38.93536" />
    <radialGradient
       inkscape:collect="always"
       xlink:href="#linearGradient3179"
       id="radialGradient8813"
       gradientUnits="userSpaceOnUse"
       gradientTransform="matrix(1,0,0,0.32996349,0,67.746972)"
       cx="64.390625"
       cy="121.72727"
       fx="64.390625"
       fy="121.72727"
       r="55.640625" />
    <linearGradient
       inkscape:collect="always"
       xlink:href="#linearGradient7839"
       id="linearGradient8815"
       gradientUnits="userSpaceOnUse"
       x1="50.951035"
       y1="110.1656"
       x2="50.951035"
       y2="118.73254" />
    <radialGradient
       r="38.93536"
       fy="975.56055"
       fx="82.250954"
       cy="975.56055"
       cx="82.250954"
       gradientTransform="matrix(-0.78956453,0,0,-0.68873786,80.003844,1736.4784)"
       gradientUnits="userSpaceOnUse"
       id="radialGradient9859"
       xlink:href="#linearGradient5563"
       inkscape:collect="always" />
    <linearGradient
       inkscape:collect="always"
       xlink:href="#linearGradient7839"
       id="linearGradient10065"
       gradientUnits="userSpaceOnUse"
       x1="50.951035"
       y1="110.1656"
       x2="50.951035"
       y2="118.73254" />
    <radialGradient
       inkscape:collect="always"
       xlink:href="#linearGradient3179"
       id="radialGradient10067"
       gradientUnits="userSpaceOnUse"
       gradientTransform="matrix(1,0,0,0.32996349,0,67.746972)"
       cx="64.390625"
       cy="121.72727"
       fx="64.390625"
       fy="121.72727"
       r="55.640625" />
    <radialGradient
       inkscape:collect="always"
       xlink:href="#linearGradient5563"
       id="radialGradient10069"
       gradientUnits="userSpaceOnUse"
       gradientTransform="matrix(-0.78956453,0,0,-0.68873786,80.003844,1736.7304)"
       cx="82.250954"
       cy="975.56055"
       fx="82.250954"
       fy="975.56055"
       r="38.93536" />
  </defs>
  <metadata
     id="metadata6604">
    <rdf:RDF>
      <cc:Work
         rdf:about="">
        <dc:format>image/svg+xml</dc:format>
        <dc:type
           rdf:resource="http://purl.org/dc/dcmitype/StillImage" />
        <dc:title></dc:title>
      </cc:Work>
    </rdf:RDF>
  </metadata>
  <g
     transform="translate(-1.258688e-6,-1064.2602)"
     id="layer1"
     inkscape:groupmode="layer"
     inkscape:label="Layer 1">
    <rect
       style="fill:none;stroke:#4a585e;stroke-width:1;stroke-linecap:round;stroke-linejoin:round;stroke-miterlimit:4;stroke-opacity:1;stroke-dasharray:none;stroke-dashoffset:0;opacity:0.5"
       id="rect4325"
       width="31"
       height="31"
       x="0.5"
       y="1064.752"
       rx="2.9201527"
       ry="2.9201519" />
    <rect
       ry="2.9201522"
       rx="2.9201519"
       y="1065.252"
       x="1"
       height="30"
       width="30"
       id="rect4323"
       style="fill:url(#radialGradient10069);fill-opacity:1;fill-rule:nonzero;stroke:none" />
    <path
       id="path5731"
       d="M 120.03125,82.75 C 84.382019,101.68355 45.480149,104.43245 8.75,86.71875 l 0,31.09375 c 0,0.94881 0.7074314,1.65625 1.65625,1.65625 l 107.96875,0 c 0.94881,0 1.65625,-0.70744 1.65625,-1.65625 l 0,-35.0625 z"
       style="fill:url(#radialGradient10067);fill-opacity:1;stroke:none;filter:url(#filter5746)"
       transform="matrix(0.24717943,0,0,0.24718117,-0.00848713,1064.7896)" />
    <path
       id="path5690"
       d="m 73.560533,1008.6352 -3.9375,11.1875 c -0.444891,0.1277 -0.878478,0.2541 -1.3125,0.4062 -0.426453,0.1494 -0.86605,0.2967 -1.28125,0.4688 -0.416572,0.1728 -0.845517,0.3676 -1.25,0.5625 -0.396988,0.1913 -0.771629,0.3819 -1.15625,0.5937 l -10.71875,-5.0625 1.21875,14.5313 c -0.233149,0.4169 -0.447422,0.8183 -0.65625,1.25 -0.177321,0.3665 -0.340828,0.7486 -0.5,1.125 -0.02262,0.054 -0.04018,0.1027 -0.0625,0.1562 -0.155383,0.3748 -0.331864,0.7723 -0.46875,1.1563 -0.04195,0.1168 -0.08486,0.2261 -0.125,0.3437 -0.132424,0.3907 -0.230943,0.7882 -0.34375,1.1875 -0.594589,2.1047 -0.9375,4.3295 -0.9375,6.625 0,2.8277 0.487347,5.5074 1.375,8.0313 0.03373,0.096 0.05891,0.2172 0.09375,0.3125 0.115711,0.3187 0.277868,0.5939 0.40625,0.9062 0.02527,0.06 0.03674,0.1269 0.0625,0.1875 2.163297,5.1165 6.016364,9.3236 10.875,11.9375 0.660896,0.3556 1.335393,0.7058 2.03125,1 0.06112,0.024 0.126103,0.04 0.1875,0.062 0.344125,0.1423 0.710614,0.2797 1.0625,0.4063 0.137557,0.051 0.267389,0.1089 0.40625,0.1562 0.192855,0.066 0.367505,0.1267 0.5625,0.1875 0.115022,0.037 0.259079,0.058 0.375,0.094 l 4.09375,11.25 5.53125,0 4,-11.2188 c 0.434766,-0.1259 0.825633,-0.2573 1.25,-0.4062 1.228689,-0.4304 2.43309,-0.9492 3.5625,-1.5625 0.0546,-0.028 0.101865,-0.063 0.15625,-0.094 l 10.75,5.125 3.906247,-3.9062 -5.062497,-10.875 c 0.0071,-0.013 0.0245,-0.019 0.03125,-0.031 0.825318,-1.5197 1.480189,-3.1187 1.96875,-4.8125 l 11.218747,-4 0,-5.5 -11.218747,-4 c -0.12545,-0.4347 -0.25757,-0.8566 -0.40625,-1.2812 -0.432262,-1.2342 -0.977096,-2.4288 -1.59375,-3.5625 l 0,-0.031 5.062497,-10.8437 -3.906247,-3.9063 -10.8125,5.0625 c -0.806084,-0.443 -1.641458,-0.8369 -2.5,-1.1875 -0.852743,-0.3484 -1.726993,-0.6551 -2.625,-0.9062 l -3.78125,-11.125 -5.53125,0 0,-10e-5 z m 1.71875,14.3437 c 0.344309,-0.017 0.713856,0 1.0625,0 11.156689,0 20.1875,9.0285 20.1875,20.1875 0,11.159 -9.030811,20.2188 -20.1875,20.2188 -11.156686,0 -20.21875,-9.0598 -20.21875,-20.2188 0,-10.8103 8.48267,-19.6464 19.15625,-20.1875 z m 1.0625,4.8125 c -1.591369,0 -3.149767,0.2381 -4.59375,0.6875 -0.96266,0.2997 -1.878666,0.6827 -2.75,1.1563 -0.44861,0.2414 -0.829578,0.4981 -1.25,0.7812 -0.408967,0.2766 -0.80781,0.5615 -1.1875,0.875 -0.01132,0.013 -0.02005,0.021 -0.03125,0.031 -0.02292,0.02 -0.03967,0.045 -0.0625,0.062 -0.348532,0.2904 -0.678632,0.5868 -1,0.9062 -0.353954,0.352 -0.681582,0.709 -1,1.0938 -0.626754,0.7576 -1.182748,1.5681 -1.65625,2.4375 -0.236745,0.4351 -0.461692,0.8846 -0.65625,1.3437 -0.583679,1.3773 -0.96747,2.8567 -1.125,4.4063 -10e-4,0.013 10e-4,0.02 0,0.031 -0.05042,0.5066 -0.0625,1.0426 -0.0625,1.5625 0,0.5305 0.0099,1.0459 0.0625,1.5625 0.106429,1.0474 0.318899,2.0254 0.625,3 0.298003,0.9488 0.689094,1.8901 1.15625,2.75 0.473502,0.8714 1.029496,1.6779 1.65625,2.4375 0.318418,0.3858 0.646046,0.7409 1,1.0938 0.342758,0.3419 0.68891,0.6917 1.0625,1 0.01158,0.013 0.01981,0.021 0.03125,0.031 0.749911,0.6156 1.547822,1.1585 2.40625,1.625 0.01272,0.013 0.01851,0.023 0.03125,0.031 1.296945,0.7004 2.731875,1.1954 4.21875,1.5 l 0.03125,0 c 0.07304,0.015 0.145403,0.05 0.21875,0.062 0.932601,0.177 1.891143,0.2812 2.875,0.2812 1.060909,0 2.06193,-0.1075 3.0625,-0.3125 1.000571,-0.205 1.986675,-0.5172 2.90625,-0.9062 0.919573,-0.3893 1.807059,-0.8847 2.625,-1.4375 0.81794,-0.5529 1.554348,-1.1791 2.25,-1.875 0.695651,-0.6957 1.322294,-1.4317 1.875,-2.25 0.552708,-0.818 1.048375,-1.7052 1.4375,-2.625 0.190727,-0.4506 0.352277,-0.9345 0.5,-1.4063 0.0031,-0.013 -0.0031,-0.021 0,-0.031 0.14979,-0.4816 0.272552,-0.9682 0.375,-1.4688 0.204886,-1.0007 0.34375,-2.0013 0.34375,-3.0625 0,-0.9841 -0.135651,-1.9423 -0.3125,-2.875 -0.01385,-0.073 -0.01638,-0.146 -0.03125,-0.2187 -0.0021,-0.013 0.0021,-0.02 0,-0.031 -0.101346,-0.4898 -0.228205,-0.9969 -0.375,-1.4687 -0.149793,-0.4807 -0.305444,-0.9471 -0.5,-1.4063 -0.389124,-0.9198 -0.884793,-1.7755 -1.4375,-2.5937 -0.552706,-0.818 -1.179349,-1.5853 -1.875,-2.2813 -0.695653,-0.6958 -1.43206,-1.3221 -2.25,-1.875 -1.226907,-0.8292 -2.587267,-1.4882 -4.03125,-1.9375 l -0.03125,0 c -1.43557,-0.4439 -2.950484,-0.6875 -4.53125,-0.6875 l 0,0 z m 0,4.9375 c 1.675027,0 3.223318,0.4221 4.625,1.125 0.523799,0.264 1.031582,0.5921 1.5,0.9375 0.428298,0.3144 0.843875,0.6253 1.21875,1 0.470864,0.471 0.907191,0.9772 1.28125,1.5313 0.315276,0.4666 0.575122,0.9523 0.8125,1.4687 0.04431,0.097 0.08366,0.1835 0.125,0.2813 0.0041,0.013 -0.0041,0.021 0,0.031 0.126945,0.3029 0.245378,0.6212 0.34375,0.9375 0.105285,0.3354 0.209898,0.6511 0.28125,1 0.06925,0.339 0.120725,0.6812 0.15625,1.0313 0.03758,0.36 0.0625,0.7238 0.0625,1.0937 0,1.4378 -0.317129,2.7858 -0.84375,4.0313 -0.263309,0.6228 -0.56344,1.2274 -0.9375,1.7812 -0.748108,1.1075 -1.736302,2.0642 -2.84375,2.8125 -0.553723,0.3742 -1.127349,0.6741 -1.75,0.9375 -1.245302,0.5267 -2.593887,0.8438 -4.03125,0.8438 -0.369987,0 -0.733749,-0.025 -1.09375,-0.062 -0.689614,-0.07 -1.356909,-0.2395 -2,-0.4375 l -0.03125,0 c -0.316368,-0.1 -0.634883,-0.2167 -0.9375,-0.3438 l -0.03125,0 c -0.09788,-0.042 -0.184965,-0.082 -0.28125,-0.125 -0.516454,-0.2375 -1.002042,-0.4971 -1.46875,-0.8125 -0.547196,-0.3696 -1.064899,-0.8167 -1.53125,-1.2812 -0.706298,-0.7063 -1.331858,-1.4898 -1.8125,-2.375 -0.801063,-1.4751 -1.21875,-3.1716 -1.21875,-4.9688 0,-1.7969 0.417687,-3.4935 1.21875,-4.9687 0.480642,-0.885 1.106202,-1.6998 1.8125,-2.4063 0.470863,-0.471 0.977526,-0.8759 1.53125,-1.25 0.276867,-0.1872 0.580034,-0.4022 0.875,-0.5625 1.474827,-0.8012 3.172045,-1.25 4.96875,-1.25 l 0,-3e-4 z m -55.375,34.3125 3.875,10.6563 5.53125,0 3.78125,-10.5938 -13.1875,-0.062 0,-5e-4 z m 24.4375,0 3.875,10.6563 5.5625,0 3.75,-10.5938 -13.1875,-0.062 0,-5e-4 z"
       style="fill:none;stroke:#cdfcff;stroke-width:8.09125996;stroke-linejoin:round;stroke-miterlimit:4;stroke-opacity:1;stroke-dasharray:none;display:inline;filter:url(#filter5696)"
       transform="matrix(0.24717943,0,0,0.24718117,-0.00848744,825.45389)"
       sodipodi:nodetypes="ccssscccsssssssssssssssssccccssccccsccccscccccscccccssssccssssssssssssssssssssssccsssssssssssssssssssscccccsssssssssssssssssccccssssssssscccccccccccccc" />
    <path
       style="fill:none;stroke:#ffffff;stroke-width:2;stroke-linejoin:round;stroke-miterlimit:4;stroke-opacity:1;stroke-dasharray:none;display:inline"
       d="m 18.174163,1074.7695 -0.973269,2.7654 c -0.109968,0.032 -0.217141,0.062 -0.324422,0.1004 -0.105411,0.037 -0.21407,0.073 -0.316699,0.1159 -0.102968,0.043 -0.208995,0.091 -0.308975,0.139 -0.09813,0.047 -0.190731,0.094 -0.285801,0.1468 l -2.649455,-1.2514 -0.973268,0.9656 1.274519,2.6263 c -0.05763,0.103 -0.110594,0.2022 -0.162212,0.3089 -0.04383,0.091 -0.08424,0.185 -0.123589,0.2781 -0.0056,0.013 -0.0099,0.025 -0.01545,0.039 -0.03841,0.093 -0.08203,0.1909 -0.115864,0.2858 -0.01037,0.029 -0.02098,0.056 -0.0309,0.085 -0.03273,0.097 -0.05708,0.1948 -0.08497,0.2935 -0.14697,0.5203 -0.231731,1.0702 -0.231731,1.6376 0,0.6989 0.120462,1.3614 0.339872,1.9852 0.0083,0.024 0.01456,0.054 0.02318,0.077 0.0286,0.079 0.06868,0.1468 0.100416,0.224 0.0063,0.015 0.0091,0.032 0.01545,0.046 0.534722,1.2648 1.487121,2.3046 2.688076,2.9507 0.163359,0.088 0.330082,0.1745 0.502083,0.2472 0.01511,0.01 0.03117,0.01 0.04634,0.015 0.08506,0.036 0.17565,0.069 0.262629,0.1006 0.034,0.013 0.06609,0.027 0.100416,0.038 0.04767,0.016 0.09084,0.032 0.139038,0.046 0.02844,0.01 0.06404,0.014 0.09269,0.023 l 1.011891,2.7809 1.367211,0 0.988718,-2.7732 c 0.107465,-0.032 0.204079,-0.064 0.308974,-0.1003 0.303707,-0.1064 0.60141,-0.2347 0.880577,-0.3862 0.0135,-0.01 0.02518,-0.015 0.03862,-0.023 l 2.657179,1.2668 0.965544,-0.9656 -1.251345,-2.688 c 0.0018,-0.01 0.0061,-0.01 0.0077,-0.01 0.204002,-0.3758 0.365873,-0.771 0.486634,-1.1897 l 2.773044,-0.9887 0,-1.3595 -2.773044,-0.9887 c -0.03101,-0.1074 -0.06366,-0.2118 -0.100416,-0.3167 -0.106846,-0.3051 -0.241518,-0.6003 -0.393942,-0.8805 l 0,-0.01 1.251345,-2.6804 -0.965544,-0.9656 -2.672627,1.2513 c -0.199248,-0.1095 -0.405735,-0.2068 -0.617949,-0.2935 -0.21078,-0.086 -0.426877,-0.1619 -0.648846,-0.224 l -0.934647,-2.7498 -1.367212,0 3.1e-5,0.01 z m 0.42484,3.5455 c 0.08511,-0.01 0.17645,0 0.262628,0 2.757704,0 4.989935,2.2317 4.989935,4.99 0,2.7583 -2.232231,4.9977 -4.989935,4.9977 -2.757703,0 -4.997659,-2.2394 -4.997659,-4.9977 0,-2.6721 2.096742,-4.8562 4.735031,-4.99 z m 0.262628,1.1897 c -0.393354,0 -0.778557,0.059 -1.13548,0.1699 -0.23795,0.074 -0.464368,0.1688 -0.679744,0.2858 -0.110887,0.06 -0.205054,0.1232 -0.308974,0.1931 -0.101088,0.068 -0.199674,0.1389 -0.293525,0.2163 -0.0028,0.01 -0.0049,0.01 -0.0077,0.01 -0.0057,0.01 -0.0098,0.011 -0.01545,0.015 -0.08615,0.072 -0.167744,0.145 -0.247179,0.224 -0.08749,0.087 -0.168473,0.1752 -0.247179,0.2704 -0.154921,0.1872 -0.292351,0.3875 -0.409391,0.6024 -0.05852,0.1075 -0.114121,0.2187 -0.162212,0.3322 -0.144273,0.3404 -0.239139,0.7061 -0.278077,1.0891 -2.47e-4,0.01 2.47e-4,0.01 0,0.01 -0.01246,0.1252 -0.01545,0.2577 -0.01545,0.3863 0,0.1311 0.0024,0.2585 0.01545,0.3862 0.02631,0.2589 0.07883,0.5006 0.154487,0.7415 0.07366,0.2346 0.170331,0.4672 0.285802,0.6798 0.11704,0.2153 0.25447,0.4147 0.409391,0.6025 0.07871,0.095 0.159689,0.1831 0.247179,0.2704 0.08472,0.084 0.170284,0.1709 0.262628,0.2471 0.0029,0.01 0.0049,0.01 0.0077,0.01 0.185362,0.1522 0.382589,0.2864 0.594775,0.4017 0.0032,0.01 0.0045,0.01 0.0077,0.01 0.320578,0.1731 0.675263,0.2954 1.042788,0.3707 l 0.0077,0 c 0.01806,0.01 0.03595,0.013 0.05407,0.015 0.23052,0.043 0.467451,0.069 0.710641,0.069 0.262235,0 0.509666,-0.027 0.756986,-0.077 0.247321,-0.051 0.491066,-0.1279 0.718366,-0.224 0.227299,-0.096 0.446668,-0.2187 0.648846,-0.3553 0.202178,-0.1367 0.384203,-0.2916 0.556154,-0.4635 0.17195,-0.172 0.326843,-0.3539 0.463462,-0.5562 0.136617,-0.2022 0.259136,-0.4215 0.35532,-0.6488 0.04714,-0.1114 0.08707,-0.231 0.123589,-0.3476 7.9e-4,-0.01 -7.9e-4,-0.01 0,-0.01 0.03702,-0.119 0.06737,-0.2393 0.09269,-0.363 0.05064,-0.2474 0.08497,-0.4947 0.08497,-0.757 0,-0.2433 -0.03353,-0.4802 -0.07724,-0.7107 -0.0034,-0.018 -0.0041,-0.036 -0.0077,-0.054 -5.13e-4,-0.01 5.14e-4,-0.01 0,-0.01 -0.02504,-0.1211 -0.05641,-0.2465 -0.09269,-0.363 -0.03702,-0.1189 -0.0755,-0.2342 -0.12359,-0.3477 -0.09618,-0.2274 -0.218703,-0.4389 -0.35532,-0.6411 -0.136617,-0.2022 -0.291511,-0.3919 -0.463461,-0.5639 -0.171952,-0.172 -0.353976,-0.3268 -0.556155,-0.4634 -0.303265,-0.205 -0.639518,-0.3679 -0.996441,-0.479 l -0.0077,0 c -0.354843,-0.1097 -0.729298,-0.1699 -1.120031,-0.1699 l -5e-6,-0 z m 0,1.2204 c 0.414033,0 0.796738,0.1044 1.143206,0.2781 0.129471,0.065 0.254985,0.1464 0.370768,0.2318 0.105867,0.078 0.208589,0.1545 0.30125,0.2472 0.116388,0.1163 0.224239,0.2415 0.316698,0.3784 0.07793,0.1154 0.142159,0.2354 0.200834,0.3631 0.01095,0.024 0.02068,0.045 0.0309,0.069 0.0011,0.01 -0.0011,0.01 0,0.01 0.03138,0.075 0.06066,0.1535 0.08497,0.2317 0.02603,0.083 0.05188,0.161 0.06952,0.2472 0.01712,0.084 0.02984,0.1684 0.03862,0.2549 0.0093,0.089 0.01545,0.1789 0.01545,0.2704 0,0.3553 -0.07839,0.6886 -0.208558,0.9964 -0.06508,0.1539 -0.13927,0.3034 -0.23173,0.4403 -0.184917,0.2737 -0.429178,0.5102 -0.702917,0.6952 -0.136869,0.092 -0.278658,0.1666 -0.432564,0.2317 -0.307813,0.1302 -0.641155,0.2086 -0.996442,0.2086 -0.09145,0 -0.181367,-0.01 -0.270352,-0.015 -0.170459,-0.018 -0.335401,-0.059 -0.494359,-0.1081 l -0.0077,0 c -0.0782,-0.024 -0.15693,-0.053 -0.23173,-0.085 l -0.0077,0 c -0.0242,-0.01 -0.04572,-0.02 -0.06952,-0.031 -0.127656,-0.059 -0.247683,-0.1229 -0.363044,-0.2009 -0.135256,-0.091 -0.263221,-0.2018 -0.378493,-0.3166 -0.174583,-0.1746 -0.329209,-0.3683 -0.448013,-0.5871 -0.198006,-0.3646 -0.30125,-0.7839 -0.30125,-1.2282 0,-0.4442 0.103244,-0.8635 0.30125,-1.2282 0.118804,-0.2187 0.27343,-0.4201 0.448013,-0.5947 0.116387,-0.1165 0.241624,-0.2165 0.378493,-0.309 0.06844,-0.046 0.143373,-0.099 0.216282,-0.1391 0.364547,-0.198 0.784064,-0.3089 1.228173,-0.3089 l -5.5e-5,-0 z m -13.687561,8.4815 0.9578208,2.634 1.367211,0 0.9346476,-2.6185 -3.2596794,-0.015 0,-5e-4 z m 6.040447,0 0.957821,2.634 1.374936,0 0.926922,-2.6185 -3.259679,-0.015 0,-5e-4 z"
       id="path5604"
       sodipodi:nodetypes="ccsssccccsssssssssssssssssccccssccccsccccscccccscccccssssccssssssssssssssssssssssccsssssssssssssssssssscccccsssssssssssssssssccccssssssssscccccccccccccc" />
    <rect
       ry="2.9201527"
       rx="2.9201522"
       y="1065.752"
       x="1.5"
       height="29"
       width="29"
       id="rect5622"
       style="fill:none;stroke:#ffffff;stroke-width:1;stroke-miterlimit:4;stroke-opacity:1;stroke-dasharray:none" />
    <path
       sodipodi:type="arc"
       style="fill:#78f7ff;fill-opacity:1;stroke:#ffffff;stroke-width:4.04562998;stroke-opacity:1;filter:url(#filter5722)"
       id="path5700"
       sodipodi:cx="74.330711"
       sodipodi:cy="75.842522"
       sodipodi:rx="2.519685"
       sodipodi:ry="2.519685"
       d="m 76.850396,75.842522 a 2.519685,2.519685 0 1 1 -5.03937,0 2.519685,2.519685 0 1 1 5.03937,0 z"
       transform="matrix(0.34605119,0,0,0.34605364,-6.859445,1057.104)" />
    <path
       transform="matrix(0.34605119,0,0,0.34605364,-6.859445,1057.104)"
       d="m 76.850396,75.842522 a 2.519685,2.519685 0 1 1 -5.03937,0 2.519685,2.519685 0 1 1 5.03937,0 z"
       sodipodi:ry="2.519685"
       sodipodi:rx="2.519685"
       sodipodi:cy="75.842522"
       sodipodi:cx="74.330711"
       id="path5685"
       style="fill:#ffffff;fill-opacity:1;stroke:none"
       sodipodi:type="arc" />
    <path
       id="path5754"
       transform="matrix(0.24717943,0,0,0.24718117,-0.00848713,1064.7896)"
       d="m 101.65625,112.5 -2.125,0.25 -4.03125,6.3125 10.71875,-0.375 -4.5625,-6.1875 z m -76.5625,0.28125 -3.875,8.375 13.1875,-0.0312 -3.78125,-8.34375 -5.53125,0 z m 24.4375,0 -3.875,8.375 13.1875,-0.0312 -3.75,-8.34375 -5.5625,0 z m 24.5,0 -3.875,8.375 13.1875,-0.0312 -3.75,-8.34375 -5.5625,0 z"
       style="opacity:0.2;fill:url(#linearGradient10065);fill-opacity:1;stroke:none;display:inline;filter:url(#filter5831)" />
    <path
       id="path4367"
       d="m 18.177865,1074.767 -0.979066,2.7606 c -0.109968,0.032 -0.213724,0.075 -0.321006,0.1124 -0.10541,0.037 -0.218376,0.07 -0.321005,0.1124 -0.102968,0.043 -0.204975,0.096 -0.304955,0.1444 -0.09813,0.047 -0.193834,0.092 -0.288905,0.1444 l -2.648295,-1.2519 -0.979066,0.9631 1.284022,2.6322 c -0.05763,0.103 -0.108885,0.1983 -0.160503,0.305 -0.04383,0.091 -0.08906,0.1797 -0.128402,0.2728 -0.0056,0.013 -0.01053,0.035 -0.01605,0.048 -0.03841,0.093 -0.07852,0.178 -0.112352,0.2729 -0.01037,0.029 -0.02218,0.067 -0.0321,0.096 -0.03273,0.097 -0.05237,0.1903 -0.08025,0.2889 -0.146969,0.5202 -0.240754,1.0697 -0.240754,1.6372 0,0.6988 0.117647,1.3664 0.337056,1.9902 0.0083,0.024 0.02349,0.041 0.0321,0.065 0.0286,0.079 0.06457,0.1475 0.0963,0.2246 0.0063,0.015 0.0097,0.034 0.01605,0.048 0.534723,1.2647 1.47944,2.3071 2.680395,2.9533 0.16336,0.088 0.341607,0.184 0.513608,0.2567 0.01511,0.01 0.03297,-0.01 0.04815,0 0.08506,0.036 0.169825,0.081 0.256804,0.1125 0.034,0.013 0.06198,0.02 0.0963,0.032 0.04767,0.016 0.09625,0.034 0.144453,0.048 0.02843,0.01 0.06765,0.01 0.0963,0.016 l 1.011167,2.7927 1.364274,0 0.995116,-2.7767 c 0.107466,-0.032 0.200061,-0.059 0.304956,-0.096 0.303706,-0.1064 0.603597,-0.2336 0.882765,-0.3852 0.0135,-0.01 0.01865,-0.024 0.0321,-0.032 l 2.664345,1.268 0.963016,-0.963 -1.251921,-2.6965 c 0.204002,-0.3756 0.376796,-0.769 0.497559,-1.1877 l 2.760646,-0.9951 0,-1.3482 -2.760646,-0.9952 c -0.03101,-0.1074 -0.0756,-0.216 -0.112352,-0.3209 -0.106847,-0.3052 -0.232782,-0.6026 -0.385207,-0.8828 l 1.251921,-2.6804 -0.963016,-0.9631 -2.680395,1.252 c -0.199247,-0.1095 -0.397696,-0.2183 -0.609911,-0.305 -0.21078,-0.086 -0.436091,-0.1626 -0.658061,-0.2247 l -0.930915,-2.7446 -1.364273,0 3e-6,-3e-4 z m 0.417307,3.5471 c 0.08511,-0.01 0.186677,0 0.272855,0 2.757703,0 4.975584,2.2333 4.975584,4.9916 0,2.7583 -2.217881,4.9917 -4.975584,4.9917 -2.757704,0 -5.007684,-2.2334 -5.007684,-4.9917 0,-2.6721 2.09654,-4.8579 4.734829,-4.9916 z m 0.272855,1.1876 c -0.393354,0 -0.782646,0.066 -1.139569,0.1766 -0.23795,0.074 -0.458736,0.1718 -0.674111,0.2889 -0.110887,0.06 -0.217086,0.1227 -0.321006,0.1926 -0.101088,0.068 -0.195053,0.1311 -0.288905,0.2087 -0.0028,0.01 -0.01326,0.013 -0.01605,0.016 -0.0057,0.01 0.0057,0.012 0,0.016 -0.08615,0.072 -0.177369,0.1296 -0.256805,0.2086 -0.08749,0.087 -0.162047,0.1778 -0.240754,0.2729 -0.15492,0.1872 -0.300267,0.3949 -0.417307,0.6099 -0.05852,0.1075 -0.112412,0.2236 -0.160502,0.3371 -0.144274,0.3405 -0.233917,0.6923 -0.272855,1.0753 -2.47e-4,0.01 2.47e-4,0.013 0,0.016 -0.01246,0.1252 -0.01605,0.2567 -0.01605,0.3852 0,0.1311 0.0031,0.2574 0.01605,0.3852 0.02631,0.2588 0.06879,0.4974 0.144452,0.7383 0.07366,0.2345 0.173434,0.4776 0.288905,0.6902 0.11704,0.2154 0.262387,0.406 0.417307,0.5939 0.07871,0.095 0.153264,0.1856 0.240754,0.2728 0.08472,0.084 0.164461,0.1646 0.256805,0.2408 0.0029,0.01 0.0132,0.013 0.01605,0.016 0.185363,0.1522 0.381675,0.286 0.59386,0.4013 0.0032,0.01 0.0129,0 0.01605,0 0.320578,0.1731 0.659693,0.2939 1.027217,0.3692 l 0.01605,0 c 0.01806,0.01 0.03003,0.013 0.04815,0.016 0.23052,0.043 0.479072,0.08 0.722262,0.08 0.262235,0 0.507042,-0.03 0.754363,-0.08 0.24732,-0.051 0.494962,-0.1286 0.722262,-0.2248 0.227299,-0.096 0.439832,-0.2165 0.642011,-0.3531 0.202177,-0.1367 0.389809,-0.2934 0.561759,-0.4654 0.17195,-0.172 0.312791,-0.3596 0.449408,-0.5618 0.136618,-0.2022 0.272972,-0.4147 0.369156,-0.642 0.04714,-0.1114 0.07584,-0.2365 0.112352,-0.3531 0.03702,-0.119 0.07098,-0.2455 0.0963,-0.3692 0.05064,-0.2473 0.08025,-0.4921 0.08025,-0.7544 0,-0.2432 -0.02049,-0.4756 -0.0642,-0.7062 -0.0034,-0.018 -0.01238,-0.046 -0.01605,-0.064 -0.02504,-0.121 -0.06002,-0.2526 -0.0963,-0.3692 -0.03702,-0.1188 -0.06426,-0.2235 -0.112352,-0.337 -0.09618,-0.2274 -0.232538,-0.4398 -0.369156,-0.642 -0.136617,-0.2022 -0.277457,-0.4058 -0.449408,-0.5778 -0.17195,-0.172 -0.359581,-0.3127 -0.561759,-0.4495 -0.303267,-0.205 -0.638193,-0.3703 -0.995117,-0.4815 l -0.01605,0 c -0.354844,-0.1097 -0.716736,-0.1766 -1.107469,-0.1766 l 2e-6,10e-5 z m 0,1.2199 c 0.414032,0 0.793102,0.1152 1.13957,0.2889 0.129472,0.065 0.253372,0.1394 0.369155,0.2247 0.105867,0.078 0.212294,0.1481 0.304956,0.2407 0.116388,0.1165 0.212495,0.2483 0.304955,0.3853 0.07793,0.1153 0.149978,0.2414 0.208653,0.3691 0.01095,0.024 0.02188,0.04 0.0321,0.064 0.03138,0.075 0.05594,0.1626 0.08025,0.2408 0.02603,0.083 0.04656,0.1545 0.0642,0.2407 0.01712,0.084 0.03937,0.1703 0.04815,0.2568 0.0093,0.089 0.01605,0.1814 0.01605,0.2729 0,0.3553 -0.07848,0.6872 -0.208653,0.9951 -0.06509,0.1539 -0.148295,0.2965 -0.240754,0.4333 -0.184918,0.2738 -0.416424,0.5212 -0.690162,0.7062 -0.136869,0.092 -0.279451,0.1597 -0.433357,0.2248 -0.307813,0.1302 -0.639831,0.2086 -0.995117,0.2086 -0.09145,0 -0.18387,-0.01 -0.272855,-0.016 -0.170458,-0.017 -0.338599,-0.047 -0.497558,-0.096 l -0.01605,0 c -0.0782,-0.024 -0.149903,-0.064 -0.224704,-0.096 -0.02419,-0.011 -0.05646,-0.022 -0.08025,-0.032 -0.127657,-0.059 -0.237746,-0.1146 -0.353106,-0.1926 -0.135256,-0.091 -0.269934,-0.2061 -0.385207,-0.321 -0.174582,-0.1745 -0.330602,-0.375 -0.449407,-0.5938 -0.198006,-0.3646 -0.304955,-0.7756 -0.304955,-1.2198 0,-0.4442 0.106949,-0.8713 0.304955,-1.2359 0.118805,-0.2188 0.274825,-0.4193 0.449407,-0.5938 0.116388,-0.1165 0.248338,-0.2125 0.385207,-0.3051 0.06844,-0.046 0.135744,-0.1047 0.208654,-0.1444 0.364546,-0.198 0.791762,-0.3049 1.235871,-0.3049 l 2e-6,-6e-4 z m 0,1.9421 c -0.378367,0 -0.690162,0.3117 -0.690162,0.6902 0,0.3783 0.311795,0.6741 0.690162,0.6741 0.378368,0 0.674111,-0.2958 0.674111,-0.6741 0,-0.3785 -0.295743,-0.6902 -0.674111,-0.6902 z m -13.6908809,6.5485 0.9469661,2.6323 1.3803232,0 0.9309154,-2.6162 -3.2582047,-0.016 0,-10e-5 z m 6.0349019,0 0.963016,2.6323 1.364273,0 0.930916,-2.6162 -3.258205,-0.016 0,-10e-5 z"
       style="fill:#3c3c3c;fill-opacity:1;stroke:none;display:inline"
       sodipodi:nodetypes="ccsssccccsssssssssssssssssccccssccccccccsccccscccccssssccssssssssssssssssssssssccsssssssssssssssssscccccssssssssssssssssccsssssssssscccsssccccccccccccc" />
  </g>
</svg>
