<?xml version="1.0" encoding="UTF-8" standalone="no"?>
<!-- Created with Inkscape (http://www.inkscape.org/) -->

<svg
   xmlns:dc="http://purl.org/dc/elements/1.1/"
   xmlns:cc="http://creativecommons.org/ns#"
   xmlns:rdf="http://www.w3.org/1999/02/22-rdf-syntax-ns#"
   xmlns:svg="http://www.w3.org/2000/svg"
   xmlns="http://www.w3.org/2000/svg"
   xmlns:xlink="http://www.w3.org/1999/xlink"
   xmlns:sodipodi="http://sodipodi.sourceforge.net/DTD/sodipodi-0.dtd"
   xmlns:inkscape="http://www.inkscape.org/namespaces/inkscape"
   width="128"
   height="128"
   id="svg6599"
   sodipodi:version="0.32"
   inkscape:version="0.47 r22583"
   version="1.0"
   sodipodi:docname="GLUON.Creator.10.256.svg"
   inkscape:output_extension="org.inkscape.output.svg.inkscape"
   inkscape:export-filename="/home/it-s/gluon.creator.128.png"
   inkscape:export-xdpi="90"
   inkscape:export-ydpi="90">
  <sodipodi:namedview
     id="base"
     pagecolor="#ffffff"
     bordercolor="#666666"
     borderopacity="1.0"
     gridtolerance="10000"
     guidetolerance="10"
     objecttolerance="10"
     inkscape:pageopacity="0.0"
     inkscape:pageshadow="2"
     inkscape:zoom="3.96875"
     inkscape:cx="24.314961"
     inkscape:cy="61.858268"
     inkscape:document-units="px"
     inkscape:current-layer="svg6599"
     showgrid="false"
     inkscape:window-width="1280"
     inkscape:window-height="739"
     inkscape:window-x="0"
     inkscape:window-y="-3"
     showguides="false"
     inkscape:guide-bbox="true"
     inkscape:window-maximized="1">
    <sodipodi:guide
       id="guide5391"
       position="30.042044,64.256595"
       orientation="0,1" />
    <sodipodi:guide
       id="guide5393"
       position="64.256595,52.990828"
       orientation="1,0" />
    <sodipodi:guide
       id="guide5399"
       position="7.0932605,87.622629"
       orientation="1,0" />
    <sodipodi:guide
       id="guide5401"
       position="25.035037,121.41993"
       orientation="0,1" />
    <sodipodi:guide
       id="guide5403"
       position="121.00268,57.997835"
       orientation="1,0" />
    <sodipodi:guide
       id="guide5405"
       position="81.36387,7.5105111"
       orientation="0,1" />
    <sodipodi:guide
       id="guide5415"
       position="73.436108,114.74392"
       orientation="0,1" />
    <sodipodi:guide
       id="guide5417"
       position="14.186521,54.24258"
       orientation="1,0" />
    <sodipodi:guide
       id="guide5419"
       position="113.90942,55.911582"
       orientation="1,0" />
    <sodipodi:guide
       id="guide5421"
       position="93.881388,15.021022"
       orientation="0,1" />
  </sodipodi:namedview>
  <defs
     id="defs6601">
    <linearGradient
       id="linearGradient5563">
      <stop
         style="stop-color:#ffffff;stop-opacity:1;"
         offset="0"
         id="stop5565" />
      <stop
         style="stop-color:#d7dce1;stop-opacity:1"
         offset="1"
         id="stop5567" />
    </linearGradient>
    <marker
       style="overflow:visible;"
       id="Arrow1Mend"
       refX="0.0"
       refY="0.0"
       orient="auto"
       inkscape:stockid="Arrow1Mend">
      <path
         transform="scale(0.4) rotate(180) translate(10,0)"
         style="fill-rule:evenodd;stroke:#000000;stroke-width:1.0pt;marker-start:none;"
         d="M 0.0,0.0 L 5.0,-5.0 L -12.5,0.0 L 5.0,5.0 L 0.0,0.0 z "
         id="path4643" />
    </marker>
    <linearGradient
       id="linearGradient4331">
      <stop
         id="stop4333"
         offset="0"
         style="stop-color:#ffffff;stop-opacity:1;" />
      <stop
         id="stop4335"
         offset="1"
         style="stop-color:#dcdcdc;stop-opacity:1;" />
    </linearGradient>
    <linearGradient
       id="linearGradient7407"
       inkscape:collect="always">
      <stop
         id="stop7409"
         offset="0"
         style="stop-color:#757574;stop-opacity:1;" />
      <stop
         id="stop7411"
         offset="1"
         style="stop-color:#757574;stop-opacity:0;" />
    </linearGradient>
    <linearGradient
       id="linearGradient7264"
       inkscape:collect="always">
      <stop
         id="stop7266"
         offset="0"
         style="stop-color:#91989a;stop-opacity:1" />
      <stop
         id="stop7268"
         offset="1"
         style="stop-color:#babdb6;stop-opacity:1" />
    </linearGradient>
    <linearGradient
       id="linearGradient3333">
      <stop
         id="stop3335"
         offset="0"
         style="stop-color:#818181;stop-opacity:0;" />
      <stop
         id="stop3337"
         offset="1"
         style="stop-color:#dadada;stop-opacity:1;" />
    </linearGradient>
    <linearGradient
       id="linearGradient3495">
      <stop
         style="stop-color:#dbdbdb;stop-opacity:1;"
         offset="0"
         id="stop3497" />
      <stop
         style="stop-color:#4b4b4b;stop-opacity:1;"
         offset="1"
         id="stop3499" />
    </linearGradient>
    <inkscape:perspective
       id="perspective195"
       inkscape:persp3d-origin="64 : 42.666667 : 1"
       inkscape:vp_z="128 : 64 : 1"
       inkscape:vp_y="0 : 1000 : 0"
       inkscape:vp_x="0 : 64 : 1"
       sodipodi:type="inkscape:persp3d" />
    <linearGradient
       id="linearGradient7839">
      <stop
         style="stop-color:#003057;stop-opacity:1"
         offset="0"
         id="stop7841" />
      <stop
         style="stop-color:#003957;stop-opacity:0"
         offset="1"
         id="stop7843" />
    </linearGradient>
    <linearGradient
       id="linearGradient7827">
      <stop
         id="stop7829"
         offset="0"
         style="stop-color:#3bc4ff;stop-opacity:1;" />
      <stop
         id="stop7831"
         offset="1"
         style="stop-color:#004f97;stop-opacity:1;" />
    </linearGradient>
    <linearGradient
       id="linearGradient7771">
      <stop
         style="stop-color:#02cdff;stop-opacity:0;"
         offset="0"
         id="stop7773" />
      <stop
         style="stop-color:#ffffff;stop-opacity:1;"
         offset="1"
         id="stop7775" />
    </linearGradient>
    <linearGradient
       id="linearGradient7759">
      <stop
         id="stop7761"
         offset="0"
         style="stop-color:#ffbd50;stop-opacity:1;" />
      <stop
         id="stop7763"
         offset="1"
         style="stop-color:#e35400;stop-opacity:1;" />
    </linearGradient>
    <linearGradient
       id="linearGradient7613">
      <stop
         style="stop-color:#ff3355;stop-opacity:1;"
         offset="0"
         id="stop7615" />
      <stop
         style="stop-color:#8e001c;stop-opacity:1;"
         offset="1"
         id="stop7617" />
    </linearGradient>
    <linearGradient
       id="linearGradient4909-738">
      <stop
         style="stop-color:#181818;stop-opacity:1;"
         offset="0"
         id="stop19692" />
      <stop
         id="stop19694"
         offset="0.5"
         style="stop-color:#181818;stop-opacity:0;" />
      <stop
         style="stop-color:#ffffff;stop-opacity:0;"
         offset="0.5"
         id="stop19696" />
      <stop
         style="stop-color:#ffffff;stop-opacity:1;"
         offset="1"
         id="stop19698" />
    </linearGradient>
    <linearGradient
       id="linearGradient3179">
      <stop
         id="stop3181"
         offset="0"
         style="stop-color:#ffffff;stop-opacity:1;" />
      <stop
         id="stop3183"
         offset="1"
         style="stop-color:#ffffff;stop-opacity:0;" />
    </linearGradient>
    <radialGradient
       gradientTransform="matrix(1.4463277,-0.3710966,0.3395064,1.3232065,-517.58895,-165.02651)"
       gradientUnits="userSpaceOnUse"
       r="13.843195"
       fy="983.29572"
       fx="411.70154"
       cy="983.29572"
       cx="411.70154"
       id="radialGradient7586"
       xlink:href="#linearGradient7613"
       inkscape:collect="always" />
    <radialGradient
       r="13.843195"
       fy="983.29572"
       fx="411.70154"
       cy="983.29572"
       cx="411.70154"
       gradientTransform="matrix(1.4463277,-0.3710966,0.3395064,1.3232065,-517.58895,-165.02651)"
       gradientUnits="userSpaceOnUse"
       id="radialGradient5856"
       xlink:href="#linearGradient7613"
       inkscape:collect="always" />
    <radialGradient
       r="13.843195"
       fy="983.29572"
       fx="411.70154"
       cy="983.29572"
       cx="411.70154"
       gradientTransform="matrix(1.4463277,-0.3710966,0.3395064,1.3232065,-517.58895,-165.02651)"
       gradientUnits="userSpaceOnUse"
       id="radialGradient5860"
       xlink:href="#linearGradient7613"
       inkscape:collect="always" />
    <radialGradient
       gradientUnits="userSpaceOnUse"
       gradientTransform="matrix(1,0,0,0.94761,0,1.8890593)"
       r="17.549622"
       fy="36.057655"
       fx="-34.018669"
       cy="36.057655"
       cx="-34.018669"
       id="radialGradient3493"
       xlink:href="#linearGradient3495"
       inkscape:collect="always" />
    <linearGradient
       gradientUnits="userSpaceOnUse"
       y2="106.50848"
       x2="-19.916883"
       y1="106.50848"
       x1="-46.511459"
       id="linearGradient3331"
       xlink:href="#linearGradient7827"
       inkscape:collect="always" />
    <radialGradient
       r="1.2030609"
       fy="1033.2708"
       fx="189.0162"
       cy="1033.2708"
       cx="189.0162"
       gradientTransform="matrix(1.1194781,-5.8714698e-5,5.8939875e-5,1.1238627,-22.644198,-127.97261)"
       gradientUnits="userSpaceOnUse"
       id="radialGradient7522"
       xlink:href="#linearGradient7264"
       inkscape:collect="always" />
    <radialGradient
       r="1.7302274"
       fy="1031.8762"
       fx="189.53488"
       cy="1031.8762"
       cx="189.53488"
       gradientTransform="matrix(1.1725235,-0.68057109,0.57376484,0.98851217,-624.6997,140.78069)"
       gradientUnits="userSpaceOnUse"
       id="radialGradient7524"
       xlink:href="#linearGradient7264"
       inkscape:collect="always" />
    <radialGradient
       r="2.5110433"
       fy="1030.6647"
       fx="190.26654"
       cy="1030.6647"
       cx="190.26654"
       gradientTransform="matrix(1.2593344,-0.6067473,0.4985051,1.0346722,-563.0389,79.322807)"
       gradientUnits="userSpaceOnUse"
       id="radialGradient7526"
       xlink:href="#linearGradient7264"
       inkscape:collect="always" />
    <radialGradient
       r="3.3483057"
       fy="1027.0809"
       fx="191.65448"
       cy="1027.0809"
       cx="191.65448"
       gradientTransform="matrix(1.3199666,-0.52969231,0.40967126,1.0208802,-482.08858,80.072238)"
       gradientUnits="userSpaceOnUse"
       id="radialGradient7528"
       xlink:href="#linearGradient7264"
       inkscape:collect="always" />
    <radialGradient
       r="4.154561"
       fy="1023.4946"
       fx="192.46072"
       cy="1023.4946"
       cx="192.46072"
       gradientTransform="matrix(1.8330402,-0.6805346,0.23685783,0.63798361,-402.75023,501.49801)"
       gradientUnits="userSpaceOnUse"
       id="radialGradient7530"
       xlink:href="#linearGradient7264"
       inkscape:collect="always" />
    <radialGradient
       r="10.328125"
       fy="1020.7311"
       fx="191.36856"
       cy="1020.7311"
       cx="191.36856"
       gradientTransform="matrix(0.94510521,0.38671355,-0.33631364,0.82193074,356.22014,102.97314)"
       gradientUnits="userSpaceOnUse"
       id="radialGradient7532"
       xlink:href="#linearGradient7264"
       inkscape:collect="always" />
    <linearGradient
       y2="1028.8715"
       x2="188.49951"
       y1="1023.7635"
       x1="188.49951"
       gradientUnits="userSpaceOnUse"
       id="linearGradient7534"
       xlink:href="#linearGradient7407"
       inkscape:collect="always" />
    <linearGradient
       y2="1027.5402"
       x2="188.49951"
       y1="1023.7635"
       x1="188.49951"
       gradientUnits="userSpaceOnUse"
       id="linearGradient7536"
       xlink:href="#linearGradient7407"
       inkscape:collect="always" />
    <linearGradient
       y2="1028.384"
       x2="188.49951"
       y1="1023.0956"
       x1="188.49951"
       gradientUnits="userSpaceOnUse"
       id="linearGradient7538"
       xlink:href="#linearGradient7407"
       inkscape:collect="always" />
    <radialGradient
       r="10.328125"
       fy="1020.7311"
       fx="191.36856"
       cy="1020.7311"
       cx="191.36856"
       gradientTransform="matrix(0.94510521,0.38671355,-0.33631364,0.82193074,322.22014,102.97314)"
       gradientUnits="userSpaceOnUse"
       id="radialGradient7549"
       xlink:href="#linearGradient7264"
       inkscape:collect="always" />
    <radialGradient
       r="4.154561"
       fy="1023.4946"
       fx="192.46072"
       cy="1023.4946"
       cx="192.46072"
       gradientTransform="matrix(1.8330402,-0.6805346,0.23685783,0.63798361,-436.75023,501.49801)"
       gradientUnits="userSpaceOnUse"
       id="radialGradient7553"
       xlink:href="#linearGradient7264"
       inkscape:collect="always" />
    <inkscape:perspective
       sodipodi:type="inkscape:persp3d"
       inkscape:vp_x="0 : 0.5 : 1"
       inkscape:vp_y="0 : 1000 : 0"
       inkscape:vp_z="1 : 0.5 : 1"
       inkscape:persp3d-origin="0.5 : 0.33333333 : 1"
       id="perspective2821" />
    <inkscape:perspective
       sodipodi:type="inkscape:persp3d"
       inkscape:vp_x="0 : 0.5 : 1"
       inkscape:vp_y="0 : 1000 : 0"
       inkscape:vp_z="1 : 0.5 : 1"
       inkscape:persp3d-origin="0.5 : 0.33333333 : 1"
       id="perspective2822" />
    <inkscape:perspective
       sodipodi:type="inkscape:persp3d"
       inkscape:vp_x="0 : 0.5 : 1"
       inkscape:vp_y="0 : 1000 : 0"
       inkscape:vp_z="1 : 0.5 : 1"
       inkscape:persp3d-origin="0.5 : 0.33333333 : 1"
       id="perspective4237" />
    <filter
       id="filter4327"
       inkscape:collect="always">
      <feGaussianBlur
         id="feGaussianBlur4329"
         stdDeviation="1.5574144"
         inkscape:collect="always" />
    </filter>
    <radialGradient
       gradientTransform="matrix(-3.0323282,0,0,-2.6309965,313.54458,3541.8612)"
       gradientUnits="userSpaceOnUse"
       r="38.93536"
       fy="975.56055"
       fx="82.250954"
       cy="975.56055"
       cx="82.250954"
       id="radialGradient4337"
       xlink:href="#linearGradient5563"
       inkscape:collect="always" />
    <inkscape:perspective
       sodipodi:type="inkscape:persp3d"
       inkscape:vp_x="0 : 0.5 : 1"
       inkscape:vp_y="0 : 1000 : 0"
       inkscape:vp_z="1 : 0.5 : 1"
       inkscape:persp3d-origin="0.5 : 0.33333333 : 1"
       id="perspective5364" />
    <filter
       id="filter5696"
       inkscape:collect="always">
      <feGaussianBlur
         id="feGaussianBlur5698"
         stdDeviation="1.846875"
         inkscape:collect="always" />
    </filter>
    <filter
       height="1.384"
       y="-0.192"
       width="1.384"
       x="-0.192"
       id="filter5722"
       inkscape:collect="always">
      <feGaussianBlur
         id="feGaussianBlur5724"
         stdDeviation="0.4031496"
         inkscape:collect="always" />
    </filter>
    <radialGradient
       gradientUnits="userSpaceOnUse"
       gradientTransform="matrix(1,0,0,0.32996349,0,67.746972)"
       r="55.640625"
       fy="121.72727"
       fx="64.390625"
       cy="121.72727"
       cx="64.390625"
       id="radialGradient5740"
       xlink:href="#linearGradient3179"
       inkscape:collect="always" />
    <filter
       height="1.3869413"
       y="-0.19347064"
       width="1.1276765"
       x="-0.063838248"
       id="filter5746"
       inkscape:collect="always">
      <feGaussianBlur
         id="feGaussianBlur5748"
         stdDeviation="2.96"
         inkscape:collect="always" />
    </filter>
    <linearGradient
       gradientUnits="userSpaceOnUse"
       y2="118.73254"
       x2="50.951035"
       y1="110.1656"
       x1="50.951035"
       id="linearGradient5801"
       xlink:href="#linearGradient7839"
       inkscape:collect="always" />
    <filter
       height="1.5193357"
       y="-0.25966787"
       width="1.0528882"
       x="-0.026444118"
       id="filter5831"
       inkscape:collect="always">
      <feGaussianBlur
         id="feGaussianBlur5833"
         stdDeviation="0.9365625"
         inkscape:collect="always" />
    </filter>
  </defs>
  <metadata
     id="metadata6604">
    <rdf:RDF>
      <cc:Work
         rdf:about="">
        <dc:format>image/svg+xml</dc:format>
        <dc:type
           rdf:resource="http://purl.org/dc/dcmitype/StillImage" />
        <dc:title></dc:title>
      </cc:Work>
    </rdf:RDF>
  </metadata>
  <g
     transform="translate(-1.258688e-6,-968.26015)"
     id="layer1"
     inkscape:groupmode="layer"
     inkscape:label="Layer 1">
    <rect
       transform="matrix(1.4613632,0,0,1.4616646,-55.813817,-450.77747)"
       style="fill:none;stroke:#4a585e;stroke-width:0.68422203999999998;stroke-linecap:round;stroke-linejoin:round;stroke-miterlimit:4;stroke-opacity:1;stroke-dasharray:none;stroke-dashoffset:0;filter:url(#filter4327)"
       id="rect4325"
       width="77.87072"
       height="77.87072"
       x="43.315594"
       y="975.56055"
       rx="1.9982386"
       ry="1.9978263" />
    <rect
       transform="matrix(1.000000,0.000000,0.000000,1.000000,0.000000,0.000000)"
       style="fill:none;stroke:#98a1a8;stroke-opacity:1"
       id="rect5101"
       width="114.0"
       height="114.0"
       x="7.0"
       y="975.0"
       rx="2.9201519"
       ry="2.9201522" />
    <rect
       transform="matrix(1.000000,0.000000,0.000000,1.000000,0.000000,0.000000)"
       ry="2.9201522"
       rx="2.9201519"
       y="975.0"
       x="7.0"
       height="114.0"
       width="114.0"
       id="rect4323"
       style="fill:url(#radialGradient4337);fill-opacity:1;fill-rule:nonzero;stroke:none" />
    <path
       id="path5731"
       d="M 120.03125,82.75 C 84.382019,101.68355 45.480149,104.43245 8.75,86.71875 l 0,31.09375 c 0,0.94881 0.7074314,1.65625 1.65625,1.65625 l 107.96875,0 c 0.94881,0 1.65625,-0.70744 1.65625,-1.65625 l 0,-35.0625 z"
       style="fill:url(#radialGradient5740);stroke:none;stroke-width:1px;stroke-linecap:butt;stroke-linejoin:miter;stroke-opacity:1;fill-opacity:1;filter:url(#filter5746)"
       transform="translate(1.258688e-6,968.26015)" />
    <path
       id="path5690"
       d="m 74.373033,986.4789 -2.65625,0.125 -0.03125,0 -0.75,0.0625 0.09375,1.1875 0.71875,-0.0625 0.03125,0 2.59375,-0.125 0.03125,0 1.375,0 0,-1.1875 -1.375,0 -0.03125,0 z m 11.0625,0.875 -0.21875,1.1875 2.375,0.46875 0.03125,0 2.25,0.5625 0.28125,-1.15625 -2.28125,-0.59375 -0.03125,0 -2.40625,-0.46875 z m -24.0625,0.90625 -0.1875,0.0625 -0.03125,0 -2.53125,0.75 -0.03125,0 -1.84375,0.625 0.375,1.15625 1.84375,-0.65625 0.03125,0 2.46875,-0.71875 0.03125,0 0.15625,-0.0312 -0.28125,-1.1875 z m 37.90625,3.46875 -0.53125,1.0625 1.749997,0.8125 0.0312,0.0312 1.15625,0.625 c -0.15679,0.81943 0.20549,1.68433 0.96875,2.125 0.96412,0.55663 2.19337,0.21412 2.75,-0.75 0.55663,-0.96412 0.24537,-2.19337 -0.71875,-2.75 -0.80121,-0.46258 -1.80744,-0.30472 -2.4375,0.3125 l -1.1875,-0.625 -0.0312,-0.0312 -1.749997,-0.8125 z m -51.34375,2.03125 -1.375,0.78125 -0.03125,0 0,0.0312 -2.21875,1.40625 0,0.0312 -0.03125,0 -0.46875,0.34375 0.71875,0.96875 0.4375,-0.34375 0,0.0312 2.1875,-1.4375 0.03125,0 1.34375,-0.78125 -0.59375,-1.03125 z m -11.53125,8.81255 -0.34375,0.3125 0,0.031 -0.03125,0 -1.8125,1.9688 -0.03125,0.031 -1.03125,1.25 0.90625,0.7813 1.0625,-1.25 -0.03125,0 1.8125,-1.9375 0.03125,-0.031 0.3125,-0.3125 -0.84375,-0.8437 z m 37.15625,6.0625 -3.9375,11.1875 c -0.444891,0.1277 -0.878478,0.2541 -1.3125,0.4062 -0.426453,0.1494 -0.86605,0.2967 -1.28125,0.4688 -0.416572,0.1728 -0.845517,0.3676 -1.25,0.5625 -0.396988,0.1913 -0.771629,0.3819 -1.15625,0.5937 l -10.71875,-5.0625 -3.9375,3.9063 5.15625,10.625 c -0.233149,0.4169 -0.447422,0.8183 -0.65625,1.25 -0.177321,0.3665 -0.340828,0.7486 -0.5,1.125 -0.02262,0.054 -0.04018,0.1027 -0.0625,0.1562 -0.155383,0.3748 -0.331864,0.7723 -0.46875,1.1563 -0.04195,0.1168 -0.08486,0.2261 -0.125,0.3437 -0.132424,0.3907 -0.230943,0.7882 -0.34375,1.1875 -0.594589,2.1047 -0.9375,4.3295 -0.9375,6.625 0,2.8277 0.487347,5.5074 1.375,8.0313 0.03373,0.096 0.05891,0.2172 0.09375,0.3125 0.115711,0.3187 0.277868,0.5939 0.40625,0.9062 0.02527,0.06 0.03674,0.1269 0.0625,0.1875 2.163297,5.1165 6.016364,9.3236 10.875,11.9375 0.660896,0.3556 1.335393,0.7058 2.03125,1 0.06112,0.024 0.126103,0.04 0.1875,0.062 0.344125,0.1423 0.710614,0.2797 1.0625,0.4063 0.137557,0.051 0.267389,0.1089 0.40625,0.1562 0.192855,0.066 0.367505,0.1267 0.5625,0.1875 0.115022,0.037 0.259079,0.058 0.375,0.094 l 4.09375,11.25 5.53125,0 4,-11.2188 c 0.434766,-0.1259 0.825633,-0.2573 1.25,-0.4062 1.228689,-0.4304 2.43309,-0.9492 3.5625,-1.5625 0.0546,-0.028 0.101865,-0.063 0.15625,-0.094 l 10.75,5.125 3.906247,-3.9062 -5.062497,-10.875 c 0.0071,-0.013 0.0245,-0.019 0.03125,-0.031 0.825318,-1.5197 1.480189,-3.1187 1.96875,-4.8125 l 11.218747,-4 0,-5.5 -11.218747,-4 c -0.12545,-0.4347 -0.25757,-0.8566 -0.40625,-1.2812 -0.432262,-1.2342 -0.977096,-2.4288 -1.59375,-3.5625 l 0,-0.031 5.062497,-10.8437 -3.906247,-3.9063 -10.8125,5.0625 c -0.806084,-0.443 -1.641458,-0.8369 -2.5,-1.1875 -0.852743,-0.3484 -1.726993,-0.6551 -2.625,-0.9062 l -3.78125,-11.125 -5.53125,0 z m -45.90625,5.5312 -0.96875,1.75 0,0.031 -0.96875,2 0,0.031 -0.25,0.5313 1.09375,0.4687 0.21875,-0.5 0.03125,-0.031 0.9375,-1.9375 0.03125,-0.031 0.9375,-1.75 -1.0625,-0.5625 z m 47.625,8.8125 c 0.344309,-0.017 0.713856,0 1.0625,0 11.156689,0 20.1875,9.0285 20.1875,20.1875 0,11.159 -9.030811,20.2188 -20.1875,20.2188 -11.156686,0 -20.21875,-9.0598 -20.21875,-20.2188 0,-10.8103 8.48267,-19.6464 19.15625,-20.1875 z m -52.9375,4.6875 -0.21875,0.8125 0,0.031 -0.4375,2.1562 0,0.031 -0.28125,1.7187 1.15625,0.1875 0.28125,-1.6875 0,-0.031 0.46875,-2.125 -0.03125,0 0.21875,-0.8125 -1.15625,-0.2813 z m 54,0.125 c -1.591369,0 -3.149767,0.2381 -4.59375,0.6875 -0.96266,0.2997 -1.878666,0.6827 -2.75,1.1563 -0.44861,0.2414 -0.829578,0.4981 -1.25,0.7812 -0.408967,0.2766 -0.80781,0.5615 -1.1875,0.875 -0.01132,0.013 -0.02005,0.021 -0.03125,0.031 -0.02292,0.02 -0.03967,0.045 -0.0625,0.062 -0.348532,0.2904 -0.678632,0.5868 -1,0.9062 -0.353954,0.352 -0.681582,0.709 -1,1.0938 -0.626754,0.7576 -1.182748,1.5681 -1.65625,2.4375 -0.236745,0.4351 -0.461692,0.8846 -0.65625,1.3437 -0.583679,1.3773 -0.96747,2.8567 -1.125,4.4063 -10e-4,0.013 10e-4,0.02 0,0.031 -0.05042,0.5066 -0.0625,1.0426 -0.0625,1.5625 0,0.5305 0.0099,1.0459 0.0625,1.5625 0.106429,1.0474 0.318899,2.0254 0.625,3 0.298003,0.9488 0.689094,1.8901 1.15625,2.75 0.473502,0.8714 1.029496,1.6779 1.65625,2.4375 0.318418,0.3858 0.646046,0.7409 1,1.0938 0.342758,0.3419 0.68891,0.6917 1.0625,1 0.01158,0.013 0.01981,0.021 0.03125,0.031 0.749911,0.6156 1.547822,1.1585 2.40625,1.625 0.01272,0.013 0.01851,0.023 0.03125,0.031 1.296945,0.7004 2.731875,1.1954 4.21875,1.5 l 0.03125,0 c 0.07304,0.015 0.145403,0.05 0.21875,0.062 0.932601,0.177 1.891143,0.2812 2.875,0.2812 1.060909,0 2.06193,-0.1075 3.0625,-0.3125 1.000571,-0.205 1.986675,-0.5172 2.90625,-0.9062 0.919573,-0.3893 1.807059,-0.8847 2.625,-1.4375 0.81794,-0.5529 1.554348,-1.1791 2.25,-1.875 0.695651,-0.6957 1.322294,-1.4317 1.875,-2.25 0.552708,-0.818 1.048375,-1.7052 1.4375,-2.625 0.190727,-0.4506 0.352277,-0.9345 0.5,-1.4063 0.0031,-0.013 -0.0031,-0.021 0,-0.031 0.14979,-0.4816 0.272552,-0.9682 0.375,-1.4688 0.204886,-1.0007 0.34375,-2.0013 0.34375,-3.0625 0,-0.9841 -0.135651,-1.9423 -0.3125,-2.875 -0.01385,-0.073 -0.01638,-0.146 -0.03125,-0.2187 -0.0021,-0.013 0.0021,-0.02 0,-0.031 -0.101346,-0.4898 -0.228205,-0.9969 -0.375,-1.4687 -0.149793,-0.4807 -0.305444,-0.9471 -0.5,-1.4063 -0.389124,-0.9198 -0.884793,-1.7755 -1.4375,-2.5937 -0.552706,-0.818 -1.179349,-1.5853 -1.875,-2.2813 -0.695653,-0.6958 -1.43206,-1.3221 -2.25,-1.875 -1.226907,-0.8292 -2.587267,-1.4882 -4.03125,-1.9375 l -0.03125,0 c -1.43557,-0.4439 -2.950484,-0.6875 -4.53125,-0.6875 z m 0,4.9375 c 1.675027,0 3.223318,0.4221 4.625,1.125 0.523799,0.264 1.031582,0.5921 1.5,0.9375 0.428298,0.3144 0.843875,0.6253 1.21875,1 0.470864,0.471 0.907191,0.9772 1.28125,1.5313 0.315276,0.4666 0.575122,0.9523 0.8125,1.4687 0.04431,0.097 0.08366,0.1835 0.125,0.2813 0.0041,0.013 -0.0041,0.021 0,0.031 0.126945,0.3029 0.245378,0.6212 0.34375,0.9375 0.105285,0.3354 0.209898,0.6511 0.28125,1 0.06925,0.339 0.120725,0.6812 0.15625,1.0313 0.03758,0.36 0.0625,0.7238 0.0625,1.0937 0,1.4378 -0.317129,2.7858 -0.84375,4.0313 -0.263309,0.6228 -0.56344,1.2274 -0.9375,1.7812 -0.748108,1.1075 -1.736302,2.0642 -2.84375,2.8125 -0.553723,0.3742 -1.127349,0.6741 -1.75,0.9375 -1.245302,0.5267 -2.593887,0.8438 -4.03125,0.8438 -0.369987,0 -0.733749,-0.025 -1.09375,-0.062 -0.689614,-0.07 -1.356909,-0.2395 -2,-0.4375 l -0.03125,0 c -0.316368,-0.1 -0.634883,-0.2167 -0.9375,-0.3438 l -0.03125,0 c -0.09788,-0.042 -0.184965,-0.082 -0.28125,-0.125 -0.516454,-0.2375 -1.002042,-0.4971 -1.46875,-0.8125 -0.547196,-0.3696 -1.064899,-0.8167 -1.53125,-1.2812 -0.706298,-0.7063 -1.331858,-1.4898 -1.8125,-2.375 -0.801063,-1.4751 -1.21875,-3.1716 -1.21875,-4.9688 0,-1.7969 0.417687,-3.4935 1.21875,-4.9687 0.480642,-0.885 1.106202,-1.6998 1.8125,-2.4063 0.470863,-0.471 0.977526,-0.8759 1.53125,-1.25 0.276867,-0.1872 0.580034,-0.4022 0.875,-0.5625 1.474827,-0.8012 3.172045,-1.25 4.96875,-1.25 z m -54.34375,9.3125 -1.1875,0.062 0.0625,1.9375 0,0.031 0.1875,2.2187 0,0.031 0.09375,0.625 1.1875,-0.1563 -0.09375,-0.5937 0.03125,0 -0.1875,-2.2188 0,-0.031 -0.09375,-1.9063 z m 3.8125,2.25 -3.75,3.5938 -4.65625,-1.9063 5.625,7.7188 2.78125,-9.4063 z m -4.84375,22.75 3.875,10.6563 5.53125,0 3.78125,-10.5938 -13.1875,-0.062 z m 24.4375,0 3.875,10.6563 5.5625,0 3.75,-10.5938 -13.1875,-0.062 z"
       style="fill:none;stroke:#cdfcff;stroke-width:2;stroke-linejoin:round;stroke-miterlimit:4;stroke-opacity:1;stroke-dasharray:none;display:inline;filter:url(#filter5696)" />
    <path
       style="fill:none;stroke:#ffffff;stroke-width:2;stroke-linejoin:round;stroke-miterlimit:4;stroke-opacity:1;stroke-dasharray:none;display:inline"
       d="m 74.373033,986.4789 -2.65625,0.125 -0.03125,0 -0.75,0.0625 0.09375,1.1875 0.71875,-0.0625 0.03125,0 2.59375,-0.125 0.03125,0 1.375,0 0,-1.1875 -1.375,0 -0.03125,0 z m 11.0625,0.875 -0.21875,1.1875 2.375,0.46875 0.03125,0 2.25,0.5625 0.28125,-1.15625 -2.28125,-0.59375 -0.03125,0 -2.40625,-0.46875 z m -24.0625,0.90625 -0.1875,0.0625 -0.03125,0 -2.53125,0.75 -0.03125,0 -1.84375,0.625 0.375,1.15625 1.84375,-0.65625 0.03125,0 2.46875,-0.71875 0.03125,0 0.15625,-0.0312 -0.28125,-1.1875 z m 37.90625,3.46875 -0.53125,1.0625 1.749997,0.8125 0.0312,0.0312 1.15625,0.625 c -0.15679,0.81943 0.20549,1.68433 0.96875,2.125 0.96412,0.55663 2.19337,0.21412 2.75,-0.75 0.55663,-0.96412 0.24537,-2.19337 -0.71875,-2.75 -0.80121,-0.46258 -1.80744,-0.30472 -2.4375,0.3125 l -1.1875,-0.625 -0.0312,-0.0312 -1.749997,-0.8125 z m -51.34375,2.03125 -1.375,0.78125 -0.03125,0 0,0.0312 -2.21875,1.40625 0,0.0312 -0.03125,0 -0.46875,0.34375 0.71875,0.96875 0.4375,-0.34375 0,0.0312 2.1875,-1.4375 0.03125,0 1.34375,-0.78125 -0.59375,-1.03125 z m -11.53125,8.81255 -0.34375,0.3125 0,0.031 -0.03125,0 -1.8125,1.9688 -0.03125,0.031 -1.03125,1.25 0.90625,0.7813 1.0625,-1.25 -0.03125,0 1.8125,-1.9375 0.03125,-0.031 0.3125,-0.3125 -0.84375,-0.8437 z m 37.15625,6.0625 -3.9375,11.1875 c -0.444891,0.1277 -0.878478,0.2541 -1.3125,0.4062 -0.426453,0.1494 -0.86605,0.2967 -1.28125,0.4688 -0.416572,0.1728 -0.845517,0.3676 -1.25,0.5625 -0.396988,0.1913 -0.771629,0.3819 -1.15625,0.5937 l -10.71875,-5.0625 -3.9375,3.9063 5.15625,10.625 c -0.233149,0.4169 -0.447422,0.8183 -0.65625,1.25 -0.177321,0.3665 -0.340828,0.7486 -0.5,1.125 -0.02262,0.054 -0.04018,0.1027 -0.0625,0.1562 -0.155383,0.3748 -0.331864,0.7723 -0.46875,1.1563 -0.04195,0.1168 -0.08486,0.2261 -0.125,0.3437 -0.132424,0.3907 -0.230943,0.7882 -0.34375,1.1875 -0.594589,2.1047 -0.9375,4.3295 -0.9375,6.625 0,2.8277 0.487347,5.5074 1.375,8.0313 0.03373,0.096 0.05891,0.2172 0.09375,0.3125 0.115711,0.3187 0.277868,0.5939 0.40625,0.9062 0.02527,0.06 0.03674,0.1269 0.0625,0.1875 2.163297,5.1165 6.016364,9.3236 10.875,11.9375 0.660896,0.3556 1.335393,0.7058 2.03125,1 0.06112,0.024 0.126103,0.04 0.1875,0.062 0.344125,0.1423 0.710614,0.2797 1.0625,0.4063 0.137557,0.051 0.267389,0.1089 0.40625,0.1562 0.192855,0.066 0.367505,0.1267 0.5625,0.1875 0.115022,0.037 0.259079,0.058 0.375,0.094 l 4.09375,11.25 5.53125,0 4,-11.2188 c 0.434766,-0.1259 0.825633,-0.2573 1.25,-0.4062 1.228689,-0.4304 2.43309,-0.9492 3.5625,-1.5625 0.0546,-0.028 0.101865,-0.063 0.15625,-0.094 l 10.75,5.125 3.906247,-3.9062 -5.062497,-10.875 c 0.0071,-0.013 0.0245,-0.019 0.03125,-0.031 0.825318,-1.5197 1.480189,-3.1187 1.96875,-4.8125 l 11.218747,-4 0,-5.5 -11.218747,-4 c -0.12545,-0.4347 -0.25757,-0.8566 -0.40625,-1.2812 -0.432262,-1.2342 -0.977096,-2.4288 -1.59375,-3.5625 l 0,-0.031 5.062497,-10.8437 -3.906247,-3.9063 -10.8125,5.0625 c -0.806084,-0.443 -1.641458,-0.8369 -2.5,-1.1875 -0.852743,-0.3484 -1.726993,-0.6551 -2.625,-0.9062 l -3.78125,-11.125 -5.53125,0 z m -45.90625,5.5312 -0.96875,1.75 0,0.031 -0.96875,2 0,0.031 -0.25,0.5313 1.09375,0.4687 0.21875,-0.5 0.03125,-0.031 0.9375,-1.9375 0.03125,-0.031 0.9375,-1.75 -1.0625,-0.5625 z m 47.625,8.8125 c 0.344309,-0.017 0.713856,0 1.0625,0 11.156689,0 20.1875,9.0285 20.1875,20.1875 0,11.159 -9.030811,20.2188 -20.1875,20.2188 -11.156686,0 -20.21875,-9.0598 -20.21875,-20.2188 0,-10.8103 8.48267,-19.6464 19.15625,-20.1875 z m -52.9375,4.6875 -0.21875,0.8125 0,0.031 -0.4375,2.1562 0,0.031 -0.28125,1.7187 1.15625,0.1875 0.28125,-1.6875 0,-0.031 0.46875,-2.125 -0.03125,0 0.21875,-0.8125 -1.15625,-0.2813 z m 54,0.125 c -1.591369,0 -3.149767,0.2381 -4.59375,0.6875 -0.96266,0.2997 -1.878666,0.6827 -2.75,1.1563 -0.44861,0.2414 -0.829578,0.4981 -1.25,0.7812 -0.408967,0.2766 -0.80781,0.5615 -1.1875,0.875 -0.01132,0.013 -0.02005,0.021 -0.03125,0.031 -0.02292,0.02 -0.03967,0.045 -0.0625,0.062 -0.348532,0.2904 -0.678632,0.5868 -1,0.9062 -0.353954,0.352 -0.681582,0.709 -1,1.0938 -0.626754,0.7576 -1.182748,1.5681 -1.65625,2.4375 -0.236745,0.4351 -0.461692,0.8846 -0.65625,1.3437 -0.583679,1.3773 -0.96747,2.8567 -1.125,4.4063 -10e-4,0.013 10e-4,0.02 0,0.031 -0.05042,0.5066 -0.0625,1.0426 -0.0625,1.5625 0,0.5305 0.0099,1.0459 0.0625,1.5625 0.106429,1.0474 0.318899,2.0254 0.625,3 0.298003,0.9488 0.689094,1.8901 1.15625,2.75 0.473502,0.8714 1.029496,1.6779 1.65625,2.4375 0.318418,0.3858 0.646046,0.7409 1,1.0938 0.342758,0.3419 0.68891,0.6917 1.0625,1 0.01158,0.013 0.01981,0.021 0.03125,0.031 0.749911,0.6156 1.547822,1.1585 2.40625,1.625 0.01272,0.013 0.01851,0.023 0.03125,0.031 1.296945,0.7004 2.731875,1.1954 4.21875,1.5 l 0.03125,0 c 0.07304,0.015 0.145403,0.05 0.21875,0.062 0.932601,0.177 1.891143,0.2812 2.875,0.2812 1.060909,0 2.06193,-0.1075 3.0625,-0.3125 1.000571,-0.205 1.986675,-0.5172 2.90625,-0.9062 0.919573,-0.3893 1.807059,-0.8847 2.625,-1.4375 0.81794,-0.5529 1.554348,-1.1791 2.25,-1.875 0.695651,-0.6957 1.322294,-1.4317 1.875,-2.25 0.552708,-0.818 1.048375,-1.7052 1.4375,-2.625 0.190727,-0.4506 0.352277,-0.9345 0.5,-1.4063 0.0031,-0.013 -0.0031,-0.021 0,-0.031 0.14979,-0.4816 0.272552,-0.9682 0.375,-1.4688 0.204886,-1.0007 0.34375,-2.0013 0.34375,-3.0625 0,-0.9841 -0.135651,-1.9423 -0.3125,-2.875 -0.01385,-0.073 -0.01638,-0.146 -0.03125,-0.2187 -0.0021,-0.013 0.0021,-0.02 0,-0.031 -0.101346,-0.4898 -0.228205,-0.9969 -0.375,-1.4687 -0.149793,-0.4807 -0.305444,-0.9471 -0.5,-1.4063 -0.389124,-0.9198 -0.884793,-1.7755 -1.4375,-2.5937 -0.552706,-0.818 -1.179349,-1.5853 -1.875,-2.2813 -0.695653,-0.6958 -1.43206,-1.3221 -2.25,-1.875 -1.226907,-0.8292 -2.587267,-1.4882 -4.03125,-1.9375 l -0.03125,0 c -1.43557,-0.4439 -2.950484,-0.6875 -4.53125,-0.6875 z m 0,4.9375 c 1.675027,0 3.223318,0.4221 4.625,1.125 0.523799,0.264 1.031582,0.5921 1.5,0.9375 0.428298,0.3144 0.843875,0.6253 1.21875,1 0.470864,0.471 0.907191,0.9772 1.28125,1.5313 0.315276,0.4666 0.575122,0.9523 0.8125,1.4687 0.04431,0.097 0.08366,0.1835 0.125,0.2813 0.0041,0.013 -0.0041,0.021 0,0.031 0.126945,0.3029 0.245378,0.6212 0.34375,0.9375 0.105285,0.3354 0.209898,0.6511 0.28125,1 0.06925,0.339 0.120725,0.6812 0.15625,1.0313 0.03758,0.36 0.0625,0.7238 0.0625,1.0937 0,1.4378 -0.317129,2.7858 -0.84375,4.0313 -0.263309,0.6228 -0.56344,1.2274 -0.9375,1.7812 -0.748108,1.1075 -1.736302,2.0642 -2.84375,2.8125 -0.553723,0.3742 -1.127349,0.6741 -1.75,0.9375 -1.245302,0.5267 -2.593887,0.8438 -4.03125,0.8438 -0.369987,0 -0.733749,-0.025 -1.09375,-0.062 -0.689614,-0.07 -1.356909,-0.2395 -2,-0.4375 l -0.03125,0 c -0.316368,-0.1 -0.634883,-0.2167 -0.9375,-0.3438 l -0.03125,0 c -0.09788,-0.042 -0.184965,-0.082 -0.28125,-0.125 -0.516454,-0.2375 -1.002042,-0.4971 -1.46875,-0.8125 -0.547196,-0.3696 -1.064899,-0.8167 -1.53125,-1.2812 -0.706298,-0.7063 -1.331858,-1.4898 -1.8125,-2.375 -0.801063,-1.4751 -1.21875,-3.1716 -1.21875,-4.9688 0,-1.7969 0.417687,-3.4935 1.21875,-4.9687 0.480642,-0.885 1.106202,-1.6998 1.8125,-2.4063 0.470863,-0.471 0.977526,-0.8759 1.53125,-1.25 0.276867,-0.1872 0.580034,-0.4022 0.875,-0.5625 1.474827,-0.8012 3.172045,-1.25 4.96875,-1.25 z m -54.34375,9.3125 -1.1875,0.062 0.0625,1.9375 0,0.031 0.1875,2.2187 0,0.031 0.09375,0.625 1.1875,-0.1563 -0.09375,-0.5937 0.03125,0 -0.1875,-2.2188 0,-0.031 -0.09375,-1.9063 z m 3.8125,2.25 -3.75,3.5938 -4.65625,-1.9063 5.625,7.7188 2.78125,-9.4063 z m -4.84375,22.75 3.875,10.6563 5.53125,0 3.78125,-10.5938 -13.1875,-0.062 z m 24.4375,0 3.875,10.6563 5.5625,0 3.75,-10.5938 -13.1875,-0.062 z"
       id="path5604" />
    <path
       id="path4367"
       d="m 74.373033,986.4789 -2.65625,0.125 -0.03125,0 -0.75,0.0625 0.09375,1.1875 0.71875,-0.0625 0.03125,0 2.59375,-0.125 0.03125,0 1.375,0 0,-1.1875 -1.375,0 -0.03125,0 z m 11.0625,0.875 -0.21875,1.1875 2.375,0.46875 0.03125,0 2.25,0.5625 0.28125,-1.15625 -2.28125,-0.59375 -0.03125,0 -2.40625,-0.46875 z m -24.0625,0.90625 -0.1875,0.0625 -0.03125,0 -2.53125,0.75 -0.03125,0 -1.84375,0.625 0.375,1.15625 1.84375,-0.65625 0.03125,0 2.46875,-0.71875 0.03125,0 0.15625,-0.0312 -0.28125,-1.1875 z m 37.90625,3.46875 -0.53125,1.0625 1.749997,0.8125 0.0312,0.0312 1.15625,0.625 c -0.15679,0.81943 0.20549,1.68433 0.96875,2.125 0.96412,0.55663 2.19337,0.21412 2.75,-0.75 0.55663,-0.96412 0.24537,-2.19337 -0.71875,-2.75 -0.80121,-0.46258 -1.80744,-0.30472 -2.4375,0.3125 l -1.1875,-0.625 -0.0312,-0.0312 -1.749997,-0.8125 z m -51.34375,2.03125 -1.375,0.78125 -0.03125,0 0,0.0312 -2.21875,1.40625 0,0.0312 -0.03125,0 -0.46875,0.34375 0.71875,0.96875 0.4375,-0.34375 0,0.0312 2.1875,-1.4375 0.03125,0 1.34375,-0.78125 -0.59375,-1.03125 z m -11.53125,8.81255 -0.34375,0.3125 0,0.031 -0.03125,0 -1.8125,1.9688 -0.03125,0.031 -1.03125,1.25 0.90625,0.7813 1.0625,-1.25 -0.03125,0 1.8125,-1.9375 0.03125,-0.031 0.3125,-0.3125 -0.84375,-0.8437 z m 37.15625,6.0625 -3.9375,11.1875 c -0.444891,0.1277 -0.878478,0.2541 -1.3125,0.4062 -0.426453,0.1494 -0.86605,0.2967 -1.28125,0.4688 -0.416572,0.1728 -0.845517,0.3676 -1.25,0.5625 -0.396988,0.1913 -0.771629,0.3819 -1.15625,0.5937 l -10.71875,-5.0625 -3.9375,3.9063 5.15625,10.625 c -0.233149,0.4169 -0.447422,0.8183 -0.65625,1.25 -0.177321,0.3665 -0.340828,0.7486 -0.5,1.125 -0.02262,0.054 -0.04018,0.1027 -0.0625,0.1562 -0.155383,0.3748 -0.331864,0.7723 -0.46875,1.1563 -0.04195,0.1168 -0.08486,0.2261 -0.125,0.3437 -0.132424,0.3907 -0.230943,0.7882 -0.34375,1.1875 -0.594589,2.1047 -0.9375,4.3295 -0.9375,6.625 0,2.8277 0.487347,5.5074 1.375,8.0313 0.03373,0.096 0.05891,0.2172 0.09375,0.3125 0.115711,0.3187 0.277868,0.5939 0.40625,0.9062 0.02527,0.06 0.03674,0.1269 0.0625,0.1875 2.163297,5.1165 6.016364,9.3236 10.875,11.9375 0.660896,0.3556 1.335393,0.7058 2.03125,1 0.06112,0.024 0.126103,0.04 0.1875,0.062 0.344125,0.1423 0.710614,0.2797 1.0625,0.4063 0.137557,0.051 0.267389,0.1089 0.40625,0.1562 0.192855,0.066 0.367505,0.1267 0.5625,0.1875 0.115022,0.037 0.259079,0.058 0.375,0.094 l 4.09375,11.25 5.53125,0 4,-11.2188 c 0.434766,-0.1259 0.825633,-0.2573 1.25,-0.4062 1.228689,-0.4304 2.43309,-0.9492 3.5625,-1.5625 0.0546,-0.028 0.101865,-0.063 0.15625,-0.094 l 10.75,5.125 3.906247,-3.9062 -5.062497,-10.875 c 0.0071,-0.013 0.0245,-0.019 0.03125,-0.031 0.825318,-1.5197 1.480189,-3.1187 1.96875,-4.8125 l 11.218747,-4 0,-5.5 -11.218747,-4 c -0.12545,-0.4347 -0.25757,-0.8566 -0.40625,-1.2812 -0.432262,-1.2342 -0.977096,-2.4288 -1.59375,-3.5625 l 0,-0.031 5.062497,-10.8437 -3.906247,-3.9063 -10.8125,5.0625 c -0.806084,-0.443 -1.641458,-0.8369 -2.5,-1.1875 -0.852743,-0.3484 -1.726993,-0.6551 -2.625,-0.9062 l -3.78125,-11.125 -5.53125,0 z m -45.90625,5.5312 -0.96875,1.75 0,0.031 -0.96875,2 0,0.031 -0.25,0.5313 1.09375,0.4687 0.21875,-0.5 0.03125,-0.031 0.9375,-1.9375 0.03125,-0.031 0.9375,-1.75 -1.0625,-0.5625 z m 47.625,8.8125 c 0.344309,-0.017 0.713856,0 1.0625,0 11.156689,0 20.1875,9.0285 20.1875,20.1875 0,11.159 -9.030811,20.2188 -20.1875,20.2188 -11.156686,0 -20.21875,-9.0598 -20.21875,-20.2188 0,-10.8103 8.48267,-19.6464 19.15625,-20.1875 z m -52.9375,4.6875 -0.21875,0.8125 0,0.031 -0.4375,2.1562 0,0.031 -0.28125,1.7187 1.15625,0.1875 0.28125,-1.6875 0,-0.031 0.46875,-2.125 -0.03125,0 0.21875,-0.8125 -1.15625,-0.2813 z m 54,0.125 c -1.591369,0 -3.149767,0.2381 -4.59375,0.6875 -0.96266,0.2997 -1.878666,0.6827 -2.75,1.1563 -0.44861,0.2414 -0.829578,0.4981 -1.25,0.7812 -0.408967,0.2766 -0.80781,0.5615 -1.1875,0.875 -0.01132,0.013 -0.02005,0.021 -0.03125,0.031 -0.02292,0.02 -0.03967,0.045 -0.0625,0.062 -0.348532,0.2904 -0.678632,0.5868 -1,0.9062 -0.353954,0.352 -0.681582,0.709 -1,1.0938 -0.626754,0.7576 -1.182748,1.5681 -1.65625,2.4375 -0.236745,0.4351 -0.461692,0.8846 -0.65625,1.3437 -0.583679,1.3773 -0.96747,2.8567 -1.125,4.4063 -10e-4,0.013 10e-4,0.02 0,0.031 -0.05042,0.5066 -0.0625,1.0426 -0.0625,1.5625 0,0.5305 0.0099,1.0459 0.0625,1.5625 0.106429,1.0474 0.318899,2.0254 0.625,3 0.298003,0.9488 0.689094,1.8901 1.15625,2.75 0.473502,0.8714 1.029496,1.6779 1.65625,2.4375 0.318418,0.3858 0.646046,0.7409 1,1.0938 0.342758,0.3419 0.68891,0.6917 1.0625,1 0.01158,0.013 0.01981,0.021 0.03125,0.031 0.749911,0.6156 1.547822,1.1585 2.40625,1.625 0.01272,0.013 0.01851,0.023 0.03125,0.031 1.296945,0.7004 2.731875,1.1954 4.21875,1.5 l 0.03125,0 c 0.07304,0.015 0.145403,0.05 0.21875,0.062 0.932601,0.177 1.891143,0.2812 2.875,0.2812 1.060909,0 2.06193,-0.1075 3.0625,-0.3125 1.000571,-0.205 1.986675,-0.5172 2.90625,-0.9062 0.919573,-0.3893 1.807059,-0.8847 2.625,-1.4375 0.81794,-0.5529 1.554348,-1.1791 2.25,-1.875 0.695651,-0.6957 1.322294,-1.4317 1.875,-2.25 0.552708,-0.818 1.048375,-1.7052 1.4375,-2.625 0.190727,-0.4506 0.352277,-0.9345 0.5,-1.4063 0.0031,-0.013 -0.0031,-0.021 0,-0.031 0.14979,-0.4816 0.272552,-0.9682 0.375,-1.4688 0.204886,-1.0007 0.34375,-2.0013 0.34375,-3.0625 0,-0.9841 -0.135651,-1.9423 -0.3125,-2.875 -0.01385,-0.073 -0.01638,-0.146 -0.03125,-0.2187 -0.0021,-0.013 0.0021,-0.02 0,-0.031 -0.101346,-0.4898 -0.228205,-0.9969 -0.375,-1.4687 -0.149793,-0.4807 -0.305444,-0.9471 -0.5,-1.4063 -0.389124,-0.9198 -0.884793,-1.7755 -1.4375,-2.5937 -0.552706,-0.818 -1.179349,-1.5853 -1.875,-2.2813 -0.695653,-0.6958 -1.43206,-1.3221 -2.25,-1.875 -1.226907,-0.8292 -2.587267,-1.4882 -4.03125,-1.9375 l -0.03125,0 c -1.43557,-0.4439 -2.950484,-0.6875 -4.53125,-0.6875 z m 0,4.9375 c 1.675027,0 3.223318,0.4221 4.625,1.125 0.523799,0.264 1.031582,0.5921 1.5,0.9375 0.428298,0.3144 0.843875,0.6253 1.21875,1 0.470864,0.471 0.907191,0.9772 1.28125,1.5313 0.315276,0.4666 0.575122,0.9523 0.8125,1.4687 0.04431,0.097 0.08366,0.1835 0.125,0.2813 0.0041,0.013 -0.0041,0.021 0,0.031 0.126945,0.3029 0.245378,0.6212 0.34375,0.9375 0.105285,0.3354 0.209898,0.6511 0.28125,1 0.06925,0.339 0.120725,0.6812 0.15625,1.0313 0.03758,0.36 0.0625,0.7238 0.0625,1.0937 0,1.4378 -0.317129,2.7858 -0.84375,4.0313 -0.263309,0.6228 -0.56344,1.2274 -0.9375,1.7812 -0.748108,1.1075 -1.736302,2.0642 -2.84375,2.8125 -0.553723,0.3742 -1.127349,0.6741 -1.75,0.9375 -1.245302,0.5267 -2.593887,0.8438 -4.03125,0.8438 -0.369987,0 -0.733749,-0.025 -1.09375,-0.062 -0.689614,-0.07 -1.356909,-0.2395 -2,-0.4375 l -0.03125,0 c -0.316368,-0.1 -0.634883,-0.2167 -0.9375,-0.3438 l -0.03125,0 c -0.09788,-0.042 -0.184965,-0.082 -0.28125,-0.125 -0.516454,-0.2375 -1.002042,-0.4971 -1.46875,-0.8125 -0.547196,-0.3696 -1.064899,-0.8167 -1.53125,-1.2812 -0.706298,-0.7063 -1.331858,-1.4898 -1.8125,-2.375 -0.801063,-1.4751 -1.21875,-3.1716 -1.21875,-4.9688 0,-1.7969 0.417687,-3.4935 1.21875,-4.9687 0.480642,-0.885 1.106202,-1.6998 1.8125,-2.4063 0.470863,-0.471 0.977526,-0.8759 1.53125,-1.25 0.276867,-0.1872 0.580034,-0.4022 0.875,-0.5625 1.474827,-0.8012 3.172045,-1.25 4.96875,-1.25 z m -54.34375,9.3125 -1.1875,0.062 0.0625,1.9375 0,0.031 0.1875,2.2187 0,0.031 0.09375,0.625 1.1875,-0.1563 -0.09375,-0.5937 0.03125,0 -0.1875,-2.2188 0,-0.031 -0.09375,-1.9063 z m 3.8125,2.25 -3.75,3.5938 -4.65625,-1.9063 5.625,7.7188 2.78125,-9.4063 z m -4.84375,22.75 3.875,10.6563 5.53125,0 3.78125,-10.5938 -13.1875,-0.062 z m 24.4375,0 3.875,10.6563 5.5625,0 3.75,-10.5938 -13.1875,-0.062 z"
       style="fill:#3c3c3c;fill-opacity:1;stroke:none;display:inline" />
    <rect
       ry="2.9201524"
       rx="2.9201519"
       y="975.5"
       x="7.5"
       height="113.0"
       width="113.0"
       id="rect5622"
       style="stroke-opacity:1;stroke:#ffffff;stroke-dasharray:none;stroke-miterlimit:4;stroke-width:1.0;fill:none"
       transform="matrix(1.000000,0.000000,0.000000,1.000000,0.000000,0.000000)" />
    <path
       sodipodi:type="arc"
       style="fill:#78f7ff;fill-opacity:1;stroke:#ffffff;stroke-width:1;stroke-opacity:1;filter:url(#filter5722)"
       id="path5700"
       sodipodi:cx="74.330711"
       sodipodi:cy="75.842522"
       sodipodi:rx="2.519685"
       sodipodi:ry="2.519685"
       d="m 76.850396,75.842522 c 0,1.391583 -1.128101,2.519685 -2.519685,2.519685 -1.391583,0 -2.519685,-1.128102 -2.519685,-2.519685 0,-1.391584 1.128102,-2.519685 2.519685,-2.519685 1.391584,0 2.519685,1.128101 2.519685,2.519685 z"
       transform="matrix(1.4,0,0,1.4,-27.716536,937.16723)" />
    <path
       transform="matrix(1.4,0,0,1.4,-27.716536,937.16723)"
       d="m 76.850396,75.842522 c 0,1.391583 -1.128101,2.519685 -2.519685,2.519685 -1.391583,0 -2.519685,-1.128102 -2.519685,-2.519685 0,-1.391584 1.128102,-2.519685 2.519685,-2.519685 1.391584,0 2.519685,1.128101 2.519685,2.519685 z"
       sodipodi:ry="2.519685"
       sodipodi:rx="2.519685"
       sodipodi:cy="75.842522"
       sodipodi:cx="74.330711"
       id="path5685"
       style="fill:#ffffff;fill-opacity:1;stroke:none"
       sodipodi:type="arc" />
    <path
       sodipodi:type="arc"
       style="fill:#3c3c3c;fill-opacity:1;stroke:none"
       id="path5687"
       sodipodi:cx="74.330711"
       sodipodi:cy="75.842522"
       sodipodi:rx="2.519685"
       sodipodi:ry="2.519685"
       d="m 76.850396,75.842522 c 0,1.391583 -1.128101,2.519685 -2.519685,2.519685 -1.391583,0 -2.519685,-1.128102 -2.519685,-2.519685 0,-1.391584 1.128102,-2.519685 2.519685,-2.519685 1.391584,0 2.519685,1.128101 2.519685,2.519685 z"
       transform="matrix(1.1,0,0,1.1,-5.4173223,959.91999)" />
    <path
       id="path5754"
       transform="translate(1.258688e-6,968.26015)"
       d="M 101.65625 112.5 L 99.53125 112.75 L 95.5 119.0625 L 106.21875 118.6875 L 101.65625 112.5 z M 25.09375 112.78125 L 21.21875 121.15625 L 34.40625 121.125 L 30.625 112.78125 L 25.09375 112.78125 z M 49.53125 112.78125 L 45.65625 121.15625 L 58.84375 121.125 L 55.09375 112.78125 L 49.53125 112.78125 z M 74.03125 112.78125 L 70.15625 121.15625 L 83.34375 121.125 L 79.59375 112.78125 L 74.03125 112.78125 z "
       style="fill:url(#linearGradient5801);fill-opacity:1;stroke:none;display:inline;opacity:0.20000000000000001;filter:url(#filter5831)" />
  </g>
</svg>
