<?xml version="1.0" encoding="UTF-8" standalone="no"?>
<!-- Created with Inkscape (http://www.inkscape.org/) -->

<svg
   xmlns:dc="http://purl.org/dc/elements/1.1/"
   xmlns:cc="http://creativecommons.org/ns#"
   xmlns:rdf="http://www.w3.org/1999/02/22-rdf-syntax-ns#"
   xmlns:svg="http://www.w3.org/2000/svg"
   xmlns="http://www.w3.org/2000/svg"
   xmlns:xlink="http://www.w3.org/1999/xlink"
   xmlns:sodipodi="http://sodipodi.sourceforge.net/DTD/sodipodi-0.dtd"
   xmlns:inkscape="http://www.inkscape.org/namespaces/inkscape"
   inkscape:export-ydpi="90"
   inkscape:export-xdpi="90"
   inkscape:export-filename="/home/it-s/gluon.creator.128.png"
   inkscape:output_extension="org.inkscape.output.svg.inkscape"
   sodipodi:docname="GLUON.Creator.11.24.svg"
   version="1.0"
   inkscape:version="0.47 r22583"
   sodipodi:version="0.32"
   id="svg6599"
   height="24"
   width="24">
  <sodipodi:namedview
     id="base"
     pagecolor="#ffffff"
     bordercolor="#666666"
     borderopacity="1.0"
     gridtolerance="10000"
     guidetolerance="10"
     objecttolerance="10"
     inkscape:pageopacity="0.0"
     inkscape:pageshadow="2"
     inkscape:zoom="5.2916667"
     inkscape:cx="-7.45655"
     inkscape:cy="8.7540578"
     inkscape:document-units="px"
     inkscape:current-layer="svg6599"
     showgrid="false"
     inkscape:window-width="1280"
     inkscape:window-height="739"
     inkscape:window-x="0"
     inkscape:window-y="-3"
     showguides="false"
     inkscape:guide-bbox="true"
     inkscape:window-maximized="1">
    <sodipodi:guide
       orientation="0,1"
       position="30.042044,64.256595"
       id="guide5391" />
    <sodipodi:guide
       orientation="1,0"
       position="64.256595,52.990828"
       id="guide5393" />
    <sodipodi:guide
       orientation="1,0"
       position="7.0932605,87.622629"
       id="guide5399" />
    <sodipodi:guide
       orientation="0,1"
       position="25.035037,121.41993"
       id="guide5401" />
    <sodipodi:guide
       orientation="1,0"
       position="121.00268,57.997835"
       id="guide5403" />
    <sodipodi:guide
       orientation="0,1"
       position="81.36387,7.5105111"
       id="guide5405" />
    <sodipodi:guide
       orientation="0,1"
       position="73.436108,114.74392"
       id="guide5415" />
    <sodipodi:guide
       orientation="1,0"
       position="14.186521,54.24258"
       id="guide5417" />
    <sodipodi:guide
       orientation="1,0"
       position="113.90942,55.911582"
       id="guide5419" />
    <sodipodi:guide
       orientation="0,1"
       position="93.881388,15.021022"
       id="guide5421" />
  </sodipodi:namedview>
  <defs
     id="defs6601">
    <linearGradient
       id="linearGradient5563">
      <stop
         id="stop5565"
         offset="0"
         style="stop-color:#ffffff;stop-opacity:1;" />
      <stop
         id="stop5567"
         offset="1"
         style="stop-color:#d7dce1;stop-opacity:1" />
    </linearGradient>
    <marker
       inkscape:stockid="Arrow1Mend"
       orient="auto"
       refY="0"
       refX="0"
       id="Arrow1Mend"
       style="overflow:visible">
      <path
         id="path4643"
         d="M 0,0 5,-5 -12.5,0 5,5 0,0 z"
         style="fill-rule:evenodd;stroke:#000000;stroke-width:1pt;marker-start:none"
         transform="matrix(-0.4,0,0,-0.4,-4,0)" />
    </marker>
    <linearGradient
       id="linearGradient4331">
      <stop
         style="stop-color:#ffffff;stop-opacity:1;"
         offset="0"
         id="stop4333" />
      <stop
         style="stop-color:#dcdcdc;stop-opacity:1;"
         offset="1"
         id="stop4335" />
    </linearGradient>
    <linearGradient
       inkscape:collect="always"
       id="linearGradient7407">
      <stop
         style="stop-color:#757574;stop-opacity:1;"
         offset="0"
         id="stop7409" />
      <stop
         style="stop-color:#757574;stop-opacity:0;"
         offset="1"
         id="stop7411" />
    </linearGradient>
    <linearGradient
       inkscape:collect="always"
       id="linearGradient7264">
      <stop
         style="stop-color:#91989a;stop-opacity:1"
         offset="0"
         id="stop7266" />
      <stop
         style="stop-color:#babdb6;stop-opacity:1"
         offset="1"
         id="stop7268" />
    </linearGradient>
    <linearGradient
       id="linearGradient3333">
      <stop
         style="stop-color:#818181;stop-opacity:0;"
         offset="0"
         id="stop3335" />
      <stop
         style="stop-color:#dadada;stop-opacity:1;"
         offset="1"
         id="stop3337" />
    </linearGradient>
    <linearGradient
       id="linearGradient3495">
      <stop
         id="stop3497"
         offset="0"
         style="stop-color:#dbdbdb;stop-opacity:1;" />
      <stop
         id="stop3499"
         offset="1"
         style="stop-color:#4b4b4b;stop-opacity:1;" />
    </linearGradient>
    <inkscape:perspective
       sodipodi:type="inkscape:persp3d"
       inkscape:vp_x="0 : 64 : 1"
       inkscape:vp_y="0 : 1000 : 0"
       inkscape:vp_z="128 : 64 : 1"
       inkscape:persp3d-origin="64 : 42.666667 : 1"
       id="perspective195" />
    <linearGradient
       id="linearGradient7839">
      <stop
         id="stop7841"
         offset="0"
         style="stop-color:#003057;stop-opacity:1" />
      <stop
         id="stop7843"
         offset="1"
         style="stop-color:#003957;stop-opacity:0" />
    </linearGradient>
    <linearGradient
       id="linearGradient7827">
      <stop
         style="stop-color:#3bc4ff;stop-opacity:1;"
         offset="0"
         id="stop7829" />
      <stop
         style="stop-color:#004f97;stop-opacity:1;"
         offset="1"
         id="stop7831" />
    </linearGradient>
    <linearGradient
       id="linearGradient7771">
      <stop
         id="stop7773"
         offset="0"
         style="stop-color:#02cdff;stop-opacity:0;" />
      <stop
         id="stop7775"
         offset="1"
         style="stop-color:#ffffff;stop-opacity:1;" />
    </linearGradient>
    <linearGradient
       id="linearGradient7759">
      <stop
         style="stop-color:#ffbd50;stop-opacity:1;"
         offset="0"
         id="stop7761" />
      <stop
         style="stop-color:#e35400;stop-opacity:1;"
         offset="1"
         id="stop7763" />
    </linearGradient>
    <linearGradient
       id="linearGradient7613">
      <stop
         id="stop7615"
         offset="0"
         style="stop-color:#ff3355;stop-opacity:1;" />
      <stop
         id="stop7617"
         offset="1"
         style="stop-color:#8e001c;stop-opacity:1;" />
    </linearGradient>
    <linearGradient
       id="linearGradient4909-738">
      <stop
         id="stop19692"
         offset="0"
         style="stop-color:#181818;stop-opacity:1;" />
      <stop
         style="stop-color:#181818;stop-opacity:0;"
         offset="0.5"
         id="stop19694" />
      <stop
         id="stop19696"
         offset="0.5"
         style="stop-color:#ffffff;stop-opacity:0;" />
      <stop
         id="stop19698"
         offset="1"
         style="stop-color:#ffffff;stop-opacity:1;" />
    </linearGradient>
    <linearGradient
       id="linearGradient3179">
      <stop
         style="stop-color:#ffffff;stop-opacity:1;"
         offset="0"
         id="stop3181" />
      <stop
         style="stop-color:#ffffff;stop-opacity:0;"
         offset="1"
         id="stop3183" />
    </linearGradient>
    <radialGradient
       inkscape:collect="always"
       xlink:href="#linearGradient7613"
       id="radialGradient7586"
       cx="411.70154"
       cy="983.29572"
       fx="411.70154"
       fy="983.29572"
       r="13.843195"
       gradientUnits="userSpaceOnUse"
       gradientTransform="matrix(1.4463277,-0.3710966,0.3395064,1.3232065,-517.58895,-165.02651)" />
    <radialGradient
       inkscape:collect="always"
       xlink:href="#linearGradient7613"
       id="radialGradient5856"
       gradientUnits="userSpaceOnUse"
       gradientTransform="matrix(1.4463277,-0.3710966,0.3395064,1.3232065,-517.58895,-165.02651)"
       cx="411.70154"
       cy="983.29572"
       fx="411.70154"
       fy="983.29572"
       r="13.843195" />
    <radialGradient
       inkscape:collect="always"
       xlink:href="#linearGradient7613"
       id="radialGradient5860"
       gradientUnits="userSpaceOnUse"
       gradientTransform="matrix(1.4463277,-0.3710966,0.3395064,1.3232065,-517.58895,-165.02651)"
       cx="411.70154"
       cy="983.29572"
       fx="411.70154"
       fy="983.29572"
       r="13.843195" />
    <radialGradient
       inkscape:collect="always"
       xlink:href="#linearGradient3495"
       id="radialGradient3493"
       cx="-34.018669"
       cy="36.057655"
       fx="-34.018669"
       fy="36.057655"
       r="17.549622"
       gradientTransform="matrix(1,0,0,0.94761,0,1.8890593)"
       gradientUnits="userSpaceOnUse" />
    <linearGradient
       inkscape:collect="always"
       xlink:href="#linearGradient7827"
       id="linearGradient3331"
       x1="-46.511459"
       y1="106.50848"
       x2="-19.916883"
       y2="106.50848"
       gradientUnits="userSpaceOnUse" />
    <radialGradient
       inkscape:collect="always"
       xlink:href="#linearGradient7264"
       id="radialGradient7522"
       gradientUnits="userSpaceOnUse"
       gradientTransform="matrix(1.1194781,-5.8714698e-5,5.8939875e-5,1.1238627,-22.644198,-127.97261)"
       cx="189.0162"
       cy="1033.2708"
       fx="189.0162"
       fy="1033.2708"
       r="1.2030609" />
    <radialGradient
       inkscape:collect="always"
       xlink:href="#linearGradient7264"
       id="radialGradient7524"
       gradientUnits="userSpaceOnUse"
       gradientTransform="matrix(1.1725235,-0.68057109,0.57376484,0.98851217,-624.6997,140.78069)"
       cx="189.53488"
       cy="1031.8762"
       fx="189.53488"
       fy="1031.8762"
       r="1.7302274" />
    <radialGradient
       inkscape:collect="always"
       xlink:href="#linearGradient7264"
       id="radialGradient7526"
       gradientUnits="userSpaceOnUse"
       gradientTransform="matrix(1.2593344,-0.6067473,0.4985051,1.0346722,-563.0389,79.322807)"
       cx="190.26654"
       cy="1030.6647"
       fx="190.26654"
       fy="1030.6647"
       r="2.5110433" />
    <radialGradient
       inkscape:collect="always"
       xlink:href="#linearGradient7264"
       id="radialGradient7528"
       gradientUnits="userSpaceOnUse"
       gradientTransform="matrix(1.3199666,-0.52969231,0.40967126,1.0208802,-482.08858,80.072238)"
       cx="191.65448"
       cy="1027.0809"
       fx="191.65448"
       fy="1027.0809"
       r="3.3483057" />
    <radialGradient
       inkscape:collect="always"
       xlink:href="#linearGradient7264"
       id="radialGradient7530"
       gradientUnits="userSpaceOnUse"
       gradientTransform="matrix(1.8330402,-0.6805346,0.23685783,0.63798361,-402.75023,501.49801)"
       cx="192.46072"
       cy="1023.4946"
       fx="192.46072"
       fy="1023.4946"
       r="4.154561" />
    <radialGradient
       inkscape:collect="always"
       xlink:href="#linearGradient7264"
       id="radialGradient7532"
       gradientUnits="userSpaceOnUse"
       gradientTransform="matrix(0.94510521,0.38671355,-0.33631364,0.82193074,356.22014,102.97314)"
       cx="191.36856"
       cy="1020.7311"
       fx="191.36856"
       fy="1020.7311"
       r="10.328125" />
    <linearGradient
       inkscape:collect="always"
       xlink:href="#linearGradient7407"
       id="linearGradient7534"
       gradientUnits="userSpaceOnUse"
       x1="188.49951"
       y1="1023.7635"
       x2="188.49951"
       y2="1028.8715" />
    <linearGradient
       inkscape:collect="always"
       xlink:href="#linearGradient7407"
       id="linearGradient7536"
       gradientUnits="userSpaceOnUse"
       x1="188.49951"
       y1="1023.7635"
       x2="188.49951"
       y2="1027.5402" />
    <linearGradient
       inkscape:collect="always"
       xlink:href="#linearGradient7407"
       id="linearGradient7538"
       gradientUnits="userSpaceOnUse"
       x1="188.49951"
       y1="1023.0956"
       x2="188.49951"
       y2="1028.384" />
    <radialGradient
       inkscape:collect="always"
       xlink:href="#linearGradient7264"
       id="radialGradient7549"
       gradientUnits="userSpaceOnUse"
       gradientTransform="matrix(0.94510521,0.38671355,-0.33631364,0.82193074,322.22014,102.97314)"
       cx="191.36856"
       cy="1020.7311"
       fx="191.36856"
       fy="1020.7311"
       r="10.328125" />
    <radialGradient
       inkscape:collect="always"
       xlink:href="#linearGradient7264"
       id="radialGradient7553"
       gradientUnits="userSpaceOnUse"
       gradientTransform="matrix(1.8330402,-0.6805346,0.23685783,0.63798361,-436.75023,501.49801)"
       cx="192.46072"
       cy="1023.4946"
       fx="192.46072"
       fy="1023.4946"
       r="4.154561" />
    <inkscape:perspective
       id="perspective2821"
       inkscape:persp3d-origin="0.5 : 0.33333333 : 1"
       inkscape:vp_z="1 : 0.5 : 1"
       inkscape:vp_y="0 : 1000 : 0"
       inkscape:vp_x="0 : 0.5 : 1"
       sodipodi:type="inkscape:persp3d" />
    <inkscape:perspective
       id="perspective2822"
       inkscape:persp3d-origin="0.5 : 0.33333333 : 1"
       inkscape:vp_z="1 : 0.5 : 1"
       inkscape:vp_y="0 : 1000 : 0"
       inkscape:vp_x="0 : 0.5 : 1"
       sodipodi:type="inkscape:persp3d" />
    <inkscape:perspective
       id="perspective4237"
       inkscape:persp3d-origin="0.5 : 0.33333333 : 1"
       inkscape:vp_z="1 : 0.5 : 1"
       inkscape:vp_y="0 : 1000 : 0"
       inkscape:vp_x="0 : 0.5 : 1"
       sodipodi:type="inkscape:persp3d" />
    <inkscape:perspective
       id="perspective5364"
       inkscape:persp3d-origin="0.5 : 0.33333333 : 1"
       inkscape:vp_z="1 : 0.5 : 1"
       inkscape:vp_y="0 : 1000 : 0"
       inkscape:vp_x="0 : 0.5 : 1"
       sodipodi:type="inkscape:persp3d" />
    <filter
       color-interpolation-filters="sRGB"
       inkscape:collect="always"
       id="filter5696">
      <feGaussianBlur
         inkscape:collect="always"
         stdDeviation="1.846875"
         id="feGaussianBlur5698" />
    </filter>
    <filter
       color-interpolation-filters="sRGB"
       inkscape:collect="always"
       id="filter5722"
       x="-0.192"
       width="1.3839999"
       y="-0.192"
       height="1.3839999">
      <feGaussianBlur
         inkscape:collect="always"
         stdDeviation="0.4031496"
         id="feGaussianBlur5724" />
    </filter>
    <filter
       color-interpolation-filters="sRGB"
       inkscape:collect="always"
       id="filter5746"
       x="-0.063838251"
       width="1.1276765"
       y="-0.19347064"
       height="1.3869413">
      <feGaussianBlur
         inkscape:collect="always"
         stdDeviation="2.96"
         id="feGaussianBlur5748" />
    </filter>
    <filter
       color-interpolation-filters="sRGB"
       inkscape:collect="always"
       id="filter5831"
       x="-0.026444118"
       width="1.0528882"
       y="-0.25966787"
       height="1.5193357">
      <feGaussianBlur
         inkscape:collect="always"
         stdDeviation="0.9365625"
         id="feGaussianBlur5833" />
    </filter>
    <radialGradient
       r="38.93536"
       fy="975.56055"
       fx="82.250954"
       cy="975.56055"
       cx="82.250954"
       gradientTransform="matrix(-0.74952918,0,0,-0.66557587,77.493284,1714.8905)"
       gradientUnits="userSpaceOnUse"
       id="radialGradient8811"
       xlink:href="#linearGradient5563"
       inkscape:collect="always" />
    <radialGradient
       r="55.640625"
       fy="121.72727"
       fx="64.390625"
       cy="121.72727"
       cx="64.390625"
       gradientTransform="matrix(1,0,0,0.32996349,0,67.746972)"
       gradientUnits="userSpaceOnUse"
       id="radialGradient8813"
       xlink:href="#linearGradient3179"
       inkscape:collect="always" />
    <linearGradient
       y2="118.73254"
       x2="50.951035"
       y1="110.1656"
       x1="50.951035"
       gradientUnits="userSpaceOnUse"
       id="linearGradient8815"
       xlink:href="#linearGradient7839"
       inkscape:collect="always" />
    <radialGradient
       inkscape:collect="always"
       xlink:href="#linearGradient5563"
       id="radialGradient9859"
       gradientUnits="userSpaceOnUse"
       gradientTransform="matrix(-0.78956453,0,0,-0.68873786,80.003844,1736.4784)"
       cx="82.250954"
       cy="975.56055"
       fx="82.250954"
       fy="975.56055"
       r="38.93536" />
    <linearGradient
       y2="118.73254"
       x2="50.951035"
       y1="110.1656"
       x1="50.951035"
       gradientUnits="userSpaceOnUse"
       id="linearGradient10065"
       xlink:href="#linearGradient7839"
       inkscape:collect="always" />
    <radialGradient
       r="55.640625"
       fy="121.72727"
       fx="64.390625"
       cy="121.72727"
       cx="64.390625"
       gradientTransform="matrix(1,0,0,0.32996349,0,67.746972)"
       gradientUnits="userSpaceOnUse"
       id="radialGradient10067"
       xlink:href="#linearGradient3179"
       inkscape:collect="always" />
    <radialGradient
       r="38.93536"
       fy="975.56055"
       fx="82.250954"
       cy="975.56055"
       cx="82.250954"
       gradientTransform="matrix(-0.78956453,0,0,-0.68873786,80.003844,1736.7304)"
       gradientUnits="userSpaceOnUse"
       id="radialGradient10069"
       xlink:href="#linearGradient5563"
       inkscape:collect="always" />
    <radialGradient
       r="38.93536"
       fy="975.56055"
       fx="82.250954"
       cy="975.56055"
       cx="82.250954"
       gradientTransform="matrix(-0.58097172,0,0,-0.50678216,59.063354,1567.3287)"
       gradientUnits="userSpaceOnUse"
       id="radialGradient10296"
       xlink:href="#linearGradient5563"
       inkscape:collect="always" />
    <radialGradient
       r="55.640625"
       fy="121.72727"
       fx="64.390625"
       cy="121.72727"
       cx="64.390625"
       gradientTransform="matrix(1,0,0,0.32996349,0,67.746972)"
       gradientUnits="userSpaceOnUse"
       id="radialGradient10298"
       xlink:href="#linearGradient3179"
       inkscape:collect="always" />
    <radialGradient
       inkscape:collect="always"
       xlink:href="#linearGradient3179"
       id="radialGradient10729"
       gradientUnits="userSpaceOnUse"
       gradientTransform="matrix(1,0,0,0.32996349,0,67.746972)"
       cx="64.390625"
       cy="121.72727"
       fx="64.390625"
       fy="121.72727"
       r="55.640625" />
    <radialGradient
       inkscape:collect="always"
       xlink:href="#linearGradient5563"
       id="radialGradient10731"
       gradientUnits="userSpaceOnUse"
       gradientTransform="matrix(-0.58097172,0,0,-0.50678216,59.063354,1567.5807)"
       cx="82.250954"
       cy="975.56055"
       fx="82.250954"
       fy="975.56055"
       r="38.93536" />
  </defs>
  <metadata
     id="metadata6604">
    <rdf:RDF>
      <cc:Work
         rdf:about="">
        <dc:format>image/svg+xml</dc:format>
        <dc:type
           rdf:resource="http://purl.org/dc/dcmitype/StillImage" />
        <dc:title />
      </cc:Work>
    </rdf:RDF>
  </metadata>
  <g
     inkscape:label="Layer 1"
     inkscape:groupmode="layer"
     id="layer1"
     transform="translate(-1.258688e-6,-1072.2602)">
    <rect
       ry="2.9201519"
       rx="2.9201527"
       y="1072.752"
       x="0.5"
       height="23"
       width="23"
       id="rect4325"
       style="opacity:0.5;fill:none;stroke:#4a585e;stroke-width:1;stroke-linecap:round;stroke-linejoin:round;stroke-miterlimit:4;stroke-opacity:1;stroke-dasharray:none;stroke-dashoffset:0" />
    <rect
       style="fill:url(#radialGradient10731);fill-opacity:1;fill-rule:nonzero;stroke:none"
       id="rect4323"
       width="22"
       height="22"
       x="1"
       y="1073.252"
       rx="2.9201519"
       ry="2.9201522" />
    <path
       transform="matrix(0.181878,0,0,0.181879,0,1073.252)"
       style="fill:url(#radialGradient10729);fill-opacity:1;stroke:none;filter:url(#filter5746)"
       d="M 120.9602,82.472413 C 85.733015,102.3178 47.291693,105.19909 10.996382,86.632298 l 0,32.591222 c 0,0.99451 0.699057,1.73602 1.636642,1.73602 l 106.690536,0 c 0.93758,0 1.63664,-0.74151 1.63664,-1.73602 l 0,-36.751107 z"
       id="path5731" />
    <rect
       style="fill:none;stroke:#ffffff;stroke-width:1;stroke-miterlimit:4;stroke-opacity:1;stroke-dasharray:none"
       id="rect5622"
       width="21"
       height="21"
       x="1.5"
       y="1073.752"
       rx="2.9201522"
       ry="2.9201527" />
    <g
       id="g10738"
       transform="matrix(1.137324,0,0,1.137324,-5.0822331,-149.37794)">
      <path
         id="path5690"
         d="m 73.560533,1008.6352 -3.9375,11.1875 c -0.444891,0.1277 -0.878478,0.2541 -1.3125,0.4062 -0.426453,0.1494 -0.86605,0.2967 -1.28125,0.4688 -0.416572,0.1728 -0.845517,0.3676 -1.25,0.5625 -0.396988,0.1913 -0.771629,0.3819 -1.15625,0.5937 l -10.71875,-5.0625 1.21875,14.5313 c -0.233149,0.4169 -0.447422,0.8183 -0.65625,1.25 -0.177321,0.3665 -0.340828,0.7486 -0.5,1.125 -0.02262,0.054 -0.04018,0.1027 -0.0625,0.1562 -0.155383,0.3748 -0.331864,0.7723 -0.46875,1.1563 -0.04195,0.1168 -0.08486,0.2261 -0.125,0.3437 -0.132424,0.3907 -0.230943,0.7882 -0.34375,1.1875 -0.594589,2.1047 -0.9375,4.3295 -0.9375,6.625 0,2.8277 0.487347,5.5074 1.375,8.0313 0.03373,0.096 0.05891,0.2172 0.09375,0.3125 0.115711,0.3187 0.277868,0.5939 0.40625,0.9062 0.02527,0.06 0.03674,0.1269 0.0625,0.1875 2.163297,5.1165 6.016364,9.3236 10.875,11.9375 0.660896,0.3556 1.335393,0.7058 2.03125,1 0.06112,0.024 0.126103,0.04 0.1875,0.062 0.344125,0.1423 0.710614,0.2797 1.0625,0.4063 0.137557,0.051 0.267389,0.1089 0.40625,0.1562 0.192855,0.066 0.367505,0.1267 0.5625,0.1875 0.115022,0.037 0.259079,0.058 0.375,0.094 l 4.09375,11.25 5.53125,0 4,-11.2188 c 0.434766,-0.1259 0.825633,-0.2573 1.25,-0.4062 1.228689,-0.4304 2.43309,-0.9492 3.5625,-1.5625 0.0546,-0.028 0.101865,-0.063 0.15625,-0.094 l 10.75,5.125 3.906247,-3.9062 -5.062497,-10.875 c 0.0071,-0.013 0.0245,-0.019 0.03125,-0.031 0.825318,-1.5197 1.480189,-3.1187 1.96875,-4.8125 l 11.218747,-4 0,-5.5 -11.218747,-4 c -0.12545,-0.4347 -0.25757,-0.8566 -0.40625,-1.2812 -0.432262,-1.2342 -0.977096,-2.4288 -1.59375,-3.5625 l 0,-0.031 5.062497,-10.8437 -3.906247,-3.9063 -10.8125,5.0625 c -0.806084,-0.443 -1.641458,-0.8369 -2.5,-1.1875 -0.852743,-0.3484 -1.726993,-0.6551 -2.625,-0.9062 l -3.78125,-11.125 -5.53125,0 0,-10e-5 z m 1.71875,14.3437 c 0.344309,-0.017 0.713856,0 1.0625,0 11.156689,0 20.1875,9.0285 20.1875,20.1875 0,11.159 -9.030811,20.2188 -20.1875,20.2188 -11.156686,0 -20.21875,-9.0598 -20.21875,-20.2188 0,-10.8103 8.48267,-19.6464 19.15625,-20.1875 z m 1.0625,4.8125 c -1.591369,0 -3.149767,0.2381 -4.59375,0.6875 -0.96266,0.2997 -1.878666,0.6827 -2.75,1.1563 -0.44861,0.2414 -0.829578,0.4981 -1.25,0.7812 -0.408967,0.2766 -0.80781,0.5615 -1.1875,0.875 -0.01132,0.013 -0.02005,0.021 -0.03125,0.031 -0.02292,0.02 -0.03967,0.045 -0.0625,0.062 -0.348532,0.2904 -0.678632,0.5868 -1,0.9062 -0.353954,0.352 -0.681582,0.709 -1,1.0938 -0.626754,0.7576 -1.182748,1.5681 -1.65625,2.4375 -0.236745,0.4351 -0.461692,0.8846 -0.65625,1.3437 -0.583679,1.3773 -0.96747,2.8567 -1.125,4.4063 -10e-4,0.013 10e-4,0.02 0,0.031 -0.05042,0.5066 -0.0625,1.0426 -0.0625,1.5625 0,0.5305 0.0099,1.0459 0.0625,1.5625 0.106429,1.0474 0.318899,2.0254 0.625,3 0.298003,0.9488 0.689094,1.8901 1.15625,2.75 0.473502,0.8714 1.029496,1.6779 1.65625,2.4375 0.318418,0.3858 0.646046,0.7409 1,1.0938 0.342758,0.3419 0.68891,0.6917 1.0625,1 0.01158,0.013 0.01981,0.021 0.03125,0.031 0.749911,0.6156 1.547822,1.1585 2.40625,1.625 0.01272,0.013 0.01851,0.023 0.03125,0.031 1.296945,0.7004 2.731875,1.1954 4.21875,1.5 l 0.03125,0 c 0.07304,0.015 0.145403,0.05 0.21875,0.062 0.932601,0.177 1.891143,0.2812 2.875,0.2812 1.060909,0 2.06193,-0.1075 3.0625,-0.3125 1.000571,-0.205 1.986675,-0.5172 2.90625,-0.9062 0.919573,-0.3893 1.807059,-0.8847 2.625,-1.4375 0.81794,-0.5529 1.554348,-1.1791 2.25,-1.875 0.695651,-0.6957 1.322294,-1.4317 1.875,-2.25 0.552708,-0.818 1.048375,-1.7052 1.4375,-2.625 0.190727,-0.4506 0.352277,-0.9345 0.5,-1.4063 0.0031,-0.013 -0.0031,-0.021 0,-0.031 0.14979,-0.4816 0.272552,-0.9682 0.375,-1.4688 0.204886,-1.0007 0.34375,-2.0013 0.34375,-3.0625 0,-0.9841 -0.135651,-1.9423 -0.3125,-2.875 -0.01385,-0.073 -0.01638,-0.146 -0.03125,-0.2187 -0.0021,-0.013 0.0021,-0.02 0,-0.031 -0.101346,-0.4898 -0.228205,-0.9969 -0.375,-1.4687 -0.149793,-0.4807 -0.305444,-0.9471 -0.5,-1.4063 -0.389124,-0.9198 -0.884793,-1.7755 -1.4375,-2.5937 -0.552706,-0.818 -1.179349,-1.5853 -1.875,-2.2813 -0.695653,-0.6958 -1.43206,-1.3221 -2.25,-1.875 -1.226907,-0.8292 -2.587267,-1.4882 -4.03125,-1.9375 l -0.03125,0 c -1.43557,-0.4439 -2.950484,-0.6875 -4.53125,-0.6875 l 0,0 0,0 z m 0,4.9375 c 1.675027,0 3.223318,0.4221 4.625,1.125 0.523799,0.264 1.031582,0.5921 1.5,0.9375 0.428298,0.3144 0.843875,0.6253 1.21875,1 0.470864,0.471 0.907191,0.9772 1.28125,1.5313 0.315276,0.4666 0.575122,0.9523 0.8125,1.4687 0.04431,0.097 0.08366,0.1835 0.125,0.2813 0.0041,0.013 -0.0041,0.021 0,0.031 0.126945,0.3029 0.245378,0.6212 0.34375,0.9375 0.105285,0.3354 0.209898,0.6511 0.28125,1 0.06925,0.339 0.120725,0.6812 0.15625,1.0313 0.03758,0.36 0.0625,0.7238 0.0625,1.0937 0,1.4378 -0.317129,2.7858 -0.84375,4.0313 -0.263309,0.6228 -0.56344,1.2274 -0.9375,1.7812 -0.748108,1.1075 -1.736302,2.0642 -2.84375,2.8125 -0.553723,0.3742 -1.127349,0.6741 -1.75,0.9375 -1.245302,0.5267 -2.593887,0.8438 -4.03125,0.8438 -0.369987,0 -0.733749,-0.025 -1.09375,-0.062 -0.689614,-0.07 -1.356909,-0.2395 -2,-0.4375 l -0.03125,0 c -0.316368,-0.1 -0.634883,-0.2167 -0.9375,-0.3438 l -0.03125,0 c -0.09788,-0.042 -0.184965,-0.082 -0.28125,-0.125 -0.516454,-0.2375 -1.002042,-0.4971 -1.46875,-0.8125 -0.547196,-0.3696 -1.064899,-0.8167 -1.53125,-1.2812 -0.706298,-0.7063 -1.331858,-1.4898 -1.8125,-2.375 -0.801063,-1.4751 -1.21875,-3.1716 -1.21875,-4.9688 0,-1.7969 0.417687,-3.4935 1.21875,-4.9687 0.480642,-0.885 1.106202,-1.6998 1.8125,-2.4063 0.470863,-0.471 0.977526,-0.8759 1.53125,-1.25 0.276867,-0.1872 0.580034,-0.4022 0.875,-0.5625 1.474827,-0.8012 3.172045,-1.25 4.96875,-1.25 l 0,-3e-4 z"
         style="fill:none;stroke:#cdfcff;stroke-width:8.60237503;stroke-linejoin:round;stroke-miterlimit:4;stroke-opacity:1;stroke-dasharray:none;display:inline;filter:url(#filter5696)"
         transform="matrix(0.20421975,0,0,0.20462422,-1.2719384,870.87954)"
         sodipodi:nodetypes="ccssscccsssssssssssssssssccccssccccsccccscccccscccccssssccssssssssssssssssssssssccssssssssssssssssssssccccccssssssssssssssssccccsssssssssccc" />
      <path
         style="fill:none;stroke:#ffffff;stroke-width:1.75851369;stroke-linejoin:round;stroke-miterlimit:4;stroke-opacity:1;stroke-dasharray:none;display:inline"
         d="m 13.750576,1077.2707 -0.804115,2.2893 c -0.09085,0.026 -0.179402,0.052 -0.268037,0.083 -0.08709,0.031 -0.176865,0.06 -0.261657,0.096 -0.08507,0.035 -0.172672,0.075 -0.255276,0.1151 -0.08107,0.039 -0.157582,0.078 -0.236129,0.1216 l -2.1889802,-1.036 -0.8041146,0.7993 1.0530078,2.1742 c -0.047614,0.085 -0.091373,0.1673 -0.1340195,0.2557 -0.036209,0.075 -0.069601,0.1531 -0.1021095,0.2302 -0.00464,0.011 -0.00818,0.021 -0.012766,0.032 -0.031736,0.077 -0.067776,0.1581 -0.095727,0.2367 -0.00856,0.024 -0.017336,0.046 -0.025533,0.071 -0.027041,0.08 -0.047158,0.1613 -0.070204,0.243 -0.1214268,0.4307 -0.1914563,0.8859 -0.1914563,1.3556 0,0.5786 0.099526,1.1271 0.2808024,1.6435 0.00684,0.02 0.01203,0.045 0.019153,0.064 0.023627,0.065 0.056746,0.1215 0.082964,0.1854 0.00522,0.013 0.00752,0.027 0.012766,0.038 0.4417869,1.0469 1.2286609,1.9078 2.2208889,2.4426 0.134968,0.073 0.272715,0.1445 0.414822,0.2047 0.01249,0.01 0.02575,0.01 0.03829,0.013 0.07028,0.03 0.145122,0.057 0.216983,0.083 0.02809,0.011 0.05461,0.022 0.08296,0.032 0.03939,0.013 0.07505,0.026 0.114873,0.038 0.02349,0.01 0.05291,0.012 0.07658,0.019 l 0.836025,2.3022 1.12959,0 0.81688,-2.2958 c 0.08879,-0.026 0.16861,-0.053 0.255274,-0.083 0.250923,-0.088 0.496885,-0.1943 0.727533,-0.3198 0.01116,-0.01 0.0208,-0.012 0.03191,-0.019 l 2.195363,1.0487 0.797733,-0.7994 -1.033862,-2.2252 c 0.0015,-0.01 0.0051,-0.01 0.0063,-0.01 0.168546,-0.3111 0.302284,-0.6382 0.402057,-0.9848 l 2.29109,-0.8185 0,-1.1254 -2.29109,-0.8185 c -0.02562,-0.089 -0.0526,-0.1753 -0.08296,-0.2622 -0.08828,-0.2525 -0.199542,-0.4969 -0.325475,-0.7289 l 0,-0.01 1.033862,-2.2189 -0.797733,-0.7994 -2.208126,1.0359 c -0.164618,-0.091 -0.335218,-0.1712 -0.51055,-0.243 -0.174146,-0.071 -0.352686,-0.134 -0.536076,-0.1854 l -0.772206,-2.2764 -1.129591,0 2.5e-5,0.01 6.1e-5,0 z m 0.351004,2.9351 c 0.07032,-0.01 0.145783,0 0.216983,0 2.278416,0 4.122686,1.8474 4.122686,4.1309 0,2.2834 -1.84427,4.1372 -4.122686,4.1372 -2.278416,0 -4.129068,-1.8538 -4.129068,-4.1372 0,-2.2121 1.732329,-4.0201 3.912085,-4.1309 z m 0.216983,0.9848 c -0.32499,0 -0.643244,0.049 -0.938134,0.1407 -0.196595,0.061 -0.383661,0.1398 -0.561605,0.2366 -0.09161,0.05 -0.169416,0.102 -0.255275,0.1598 -0.08352,0.056 -0.164971,0.115 -0.24251,0.1791 -0.0023,0.01 -0.004,0.01 -0.0063,0.01 -0.0047,0.01 -0.0081,0.01 -0.01277,0.013 -0.07118,0.06 -0.13859,0.12 -0.20422,0.1854 -0.07229,0.072 -0.139192,0.1451 -0.204219,0.2239 -0.127996,0.155 -0.241541,0.3208 -0.338239,0.4987 -0.04835,0.089 -0.09429,0.181 -0.134019,0.275 -0.119199,0.2818 -0.197577,0.5845 -0.229748,0.9016 -2.04e-4,0.01 2.04e-4,0.01 0,0.01 -0.01029,0.1036 -0.01277,0.2133 -0.01277,0.3197 0,0.1086 0.002,0.214 0.01277,0.3198 0.02174,0.2143 0.06513,0.4144 0.127637,0.6138 0.06086,0.1942 0.140727,0.3867 0.23613,0.5627 0.0967,0.1782 0.210243,0.3434 0.338239,0.4988 0.06503,0.079 0.131935,0.1516 0.204219,0.2239 0.07,0.069 0.140689,0.1415 0.216984,0.2045 0.0024,0.01 0.004,0.01 0.0063,0.01 0.153146,0.1261 0.316096,0.2371 0.491404,0.3326 0.0026,0.01 0.0038,0.01 0.0063,0.01 0.264862,0.1433 0.557902,0.2446 0.861551,0.3069 l 0.0063,0 c 0.01492,0.01 0.0297,0.011 0.04467,0.012 0.190456,0.035 0.386209,0.057 0.587133,0.057 0.216658,0 0.421086,-0.022 0.625422,-0.064 0.204336,-0.042 0.405719,-0.1059 0.593514,-0.1855 0.187794,-0.079 0.369038,-0.181 0.536077,-0.2941 0.16704,-0.1132 0.317429,-0.2414 0.459495,-0.3837 0.142065,-0.1424 0.270037,-0.293 0.382912,-0.4604 0.112873,-0.1674 0.214099,-0.349 0.293566,-0.5372 0.03895,-0.092 0.07194,-0.1911 0.102109,-0.2877 6.53e-4,-0.01 -6.53e-4,-0.01 0,-0.01 0.03059,-0.099 0.05566,-0.1981 0.07658,-0.3005 0.04184,-0.2048 0.0702,-0.4095 0.0702,-0.6266 0,-0.2015 -0.0277,-0.3976 -0.06382,-0.5884 -0.0028,-0.015 -0.0034,-0.03 -0.0063,-0.045 -4.23e-4,-0.01 4.25e-4,-0.01 0,-0.01 -0.02069,-0.1003 -0.04661,-0.2041 -0.07658,-0.3005 -0.03059,-0.099 -0.06238,-0.1939 -0.10211,-0.2879 -0.07946,-0.1882 -0.180693,-0.3633 -0.293566,-0.5307 -0.112873,-0.1674 -0.240846,-0.3245 -0.382912,-0.4668 -0.142066,-0.1424 -0.292455,-0.2706 -0.459495,-0.3836 -0.250558,-0.1698 -0.52837,-0.3046 -0.82326,-0.3965 l -0.0063,0 c -0.293171,-0.091 -0.602547,-0.1407 -0.92537,-0.1407 l -4e-6,0 1.4e-5,-0.01 z m 0,1.0103 c 0.342074,0 0.658265,0.086 0.944517,0.2302 0.106969,0.054 0.210669,0.1212 0.306329,0.1919 0.08747,0.065 0.172336,0.1279 0.248893,0.2047 0.09616,0.096 0.185266,0.1999 0.261656,0.3132 0.06438,0.096 0.117451,0.1949 0.165929,0.3006 0.0091,0.02 0.01709,0.038 0.02553,0.057 8.83e-4,0.01 -8.83e-4,0.01 0,0.01 0.02592,0.062 0.05012,0.1271 0.0702,0.1918 0.02151,0.068 0.04286,0.1333 0.05744,0.2046 0.01414,0.069 0.02466,0.1395 0.03191,0.2111 0.0077,0.074 0.01277,0.148 0.01277,0.2238 0,0.2941 -0.06477,0.57 -0.17231,0.8248 -0.05377,0.1274 -0.115065,0.2512 -0.191456,0.3646 -0.152778,0.2265 -0.354586,0.4223 -0.58075,0.5754 -0.113081,0.076 -0.230227,0.1379 -0.357385,0.1919 -0.254315,0.1078 -0.529722,0.1727 -0.82326,0.1727 -0.07556,0 -0.149846,-0.01 -0.223366,-0.012 -0.140833,-0.015 -0.277107,-0.049 -0.408439,-0.09 l -0.0063,0 c -0.06461,-0.02 -0.129655,-0.044 -0.191456,-0.071 l -0.0063,0 c -0.01999,-0.01 -0.03778,-0.017 -0.05744,-0.026 -0.10547,-0.049 -0.204636,-0.1018 -0.299948,-0.1664 -0.111748,-0.075 -0.217473,-0.167 -0.31271,-0.2621 -0.144241,-0.1445 -0.271993,-0.3048 -0.370149,-0.486 -0.163592,-0.3018 -0.248893,-0.6489 -0.248893,-1.0167 0,-0.3677 0.0853,-0.7149 0.248893,-1.0168 0.09816,-0.181 0.225908,-0.3477 0.370149,-0.4922 0.09616,-0.096 0.199629,-0.1793 0.31271,-0.2559 0.05655,-0.038 0.118455,-0.082 0.178693,-0.1151 0.301188,-0.1639 0.647794,-0.2557 1.014717,-0.2557 l -4.6e-5,0 -1.28e-4,0 z"
         id="path5604"
         sodipodi:nodetypes="ccsssccccsssssssssssssssssccccssccccsccccscccccsccccccssscccsssssssssssssssssssssccsssssssssssssssssssscccccscsssssssssssssssccccsssssssssccccc" />
      <path
         sodipodi:type="arc"
         style="fill:#78f7ff;fill-opacity:1;stroke:#ffffff;stroke-width:4.30118752;stroke-opacity:1;filter:url(#filter5722)"
         id="path5700"
         sodipodi:cx="74.330711"
         sodipodi:cy="75.842522"
         sodipodi:rx="2.519685"
         sodipodi:ry="2.519685"
         d="m 76.850396,75.842522 c 0,1.391583 -1.128101,2.519685 -2.519685,2.519685 -1.391583,0 -2.519685,-1.128102 -2.519685,-2.519685 0,-1.391584 1.128102,-2.519685 2.519685,-2.519685 1.391584,0 2.519685,1.128101 2.519685,2.519685 z"
         transform="matrix(0.28590764,0,0,0.28647392,-6.932202,1062.6467)" />
      <path
         transform="matrix(0.28590764,0,0,0.28647392,-6.932202,1062.6467)"
         d="m 76.850396,75.842522 c 0,1.391583 -1.128101,2.519685 -2.519685,2.519685 -1.391583,0 -2.519685,-1.128102 -2.519685,-2.519685 0,-1.391584 1.128102,-2.519685 2.519685,-2.519685 1.391584,0 2.519685,1.128101 2.519685,2.519685 z"
         sodipodi:ry="2.519685"
         sodipodi:rx="2.519685"
         sodipodi:cy="75.842522"
         sodipodi:cx="74.330711"
         id="path5685"
         style="fill:#ffffff;fill-opacity:1;stroke:none"
         sodipodi:type="arc" />
      <path
         id="path4367"
         d="m 13.753634,1077.2686 -0.808904,2.2854 c -0.09086,0.026 -0.176579,0.062 -0.265215,0.093 -0.08709,0.031 -0.180423,0.058 -0.265215,0.093 -0.08507,0.035 -0.16935,0.079 -0.251954,0.1195 -0.08108,0.039 -0.160146,0.076 -0.238694,0.1195 l -2.1880222,-1.0364 -0.8089048,0.7974 1.0608597,2.1789 c -0.047614,0.085 -0.089961,0.1642 -0.1326075,0.2526 -0.036209,0.075 -0.073581,0.1487 -0.1060858,0.2258 -0.00464,0.011 -0.0087,0.029 -0.013259,0.04 -0.031736,0.077 -0.064877,0.1474 -0.092825,0.2259 -0.00856,0.024 -0.018329,0.055 -0.026519,0.08 -0.027041,0.08 -0.043266,0.1575 -0.066304,0.2392 -0.1214261,0.4306 -0.1989109,0.8855 -0.1989109,1.3553 0,0.5785 0.097199,1.1311 0.2784758,1.6475 0.00684,0.02 0.019403,0.034 0.026519,0.054 0.023627,0.065 0.053346,0.1221 0.079563,0.1859 0.00522,0.012 0.00801,0.028 0.013259,0.04 0.4417887,1.047 1.2223137,1.9099 2.2145427,2.4448 0.134968,0.073 0.282236,0.1524 0.424344,0.2126 0.01249,0.01 0.02724,-0.01 0.03979,0 0.07028,0.03 0.140309,0.067 0.212171,0.093 0.02809,0.011 0.0512,0.017 0.07956,0.026 0.03939,0.013 0.07952,0.028 0.119348,0.04 0.02349,0.01 0.05589,0.01 0.07956,0.013 l 0.835426,2.3119 1.127164,0 0.822165,-2.2987 c 0.08879,-0.026 0.165291,-0.049 0.251955,-0.08 0.250922,-0.088 0.498692,-0.1933 0.729341,-0.3189 0.01115,-0.01 0.01541,-0.02 0.02652,-0.026 l 2.201284,1.0498 0.795644,-0.7972 -1.034338,-2.2323 c 0.168547,-0.3109 0.311309,-0.6366 0.411084,-0.9832 l 2.280847,-0.8238 0,-1.116 -2.280847,-0.8239 c -0.02562,-0.089 -0.06246,-0.1788 -0.09283,-0.2657 -0.08828,-0.2526 -0.192324,-0.4988 -0.318258,-0.7308 l 1.034338,-2.2189 -0.795644,-0.7972 -2.214544,1.0363 c -0.164618,-0.091 -0.328576,-0.1807 -0.503909,-0.2524 -0.174146,-0.071 -0.360298,-0.1346 -0.543689,-0.186 l -0.769124,-2.2721 -1.127162,0 2e-6,-3e-4 3e-6,-5e-4 z m 0.34478,2.9364 c 0.07032,-0.01 0.154233,0 0.225433,0 2.278415,0 4.110829,1.8488 4.110829,4.1323 0,2.2833 -1.832414,4.1322 -4.110829,4.1322 -2.278417,0 -4.137351,-1.8489 -4.137351,-4.1322 0,-2.2121 1.732163,-4.0216 3.911918,-4.1323 z m 0.225433,0.9831 c -0.32499,0 -0.646623,0.054 -0.941513,0.1462 -0.196594,0.061 -0.379008,0.1423 -0.556951,0.2393 -0.09162,0.049 -0.179356,0.1015 -0.265215,0.1593 -0.08352,0.056 -0.161152,0.1086 -0.238693,0.1728 -0.0023,0.01 -0.01096,0.011 -0.01326,0.013 -0.0047,0.01 0.0047,0.01 0,0.013 -0.07118,0.06 -0.146542,0.1073 -0.212172,0.1727 -0.07229,0.072 -0.133883,0.1472 -0.198911,0.226 -0.127995,0.1549 -0.24808,0.3268 -0.344779,0.5048 -0.04835,0.089 -0.09287,0.1851 -0.132607,0.2791 -0.119199,0.2819 -0.193262,0.5731 -0.225433,0.8902 -2.04e-4,0.01 2.04e-4,0.011 0,0.013 -0.01029,0.1036 -0.01326,0.2125 -0.01326,0.3189 0,0.1085 0.0026,0.213 0.01326,0.3189 0.02174,0.2142 0.05683,0.4117 0.119346,0.6111 0.06086,0.1942 0.143292,0.3954 0.238694,0.5714 0.0967,0.1783 0.216784,0.3361 0.344779,0.4916 0.06503,0.079 0.126627,0.1537 0.198911,0.2259 0.07,0.069 0.135878,0.1362 0.212172,0.1993 0.0024,0.01 0.0109,0.011 0.01326,0.013 0.153147,0.1261 0.31534,0.2368 0.490647,0.3323 0.0026,0.01 0.01065,0 0.01326,0 0.264861,0.1433 0.545038,0.2433 0.848687,0.3056 l 0.01326,0 c 0.01492,0.01 0.02481,0.011 0.03978,0.013 0.190456,0.035 0.395809,0.066 0.596733,0.066 0.216659,0 0.418918,-0.025 0.623255,-0.066 0.204336,-0.042 0.408938,-0.1065 0.596733,-0.1861 0.187795,-0.08 0.36339,-0.1793 0.53043,-0.2924 0.167039,-0.1131 0.32206,-0.2429 0.464125,-0.3852 0.142066,-0.1424 0.258429,-0.2977 0.371302,-0.4651 0.112873,-0.1674 0.225529,-0.3433 0.304996,-0.5314 0.03895,-0.092 0.06266,-0.1958 0.09283,-0.2924 0.03059,-0.099 0.05864,-0.2032 0.07956,-0.3056 0.04184,-0.2047 0.0663,-0.4074 0.0663,-0.6245 0,-0.2013 -0.01693,-0.3938 -0.05305,-0.5846 -0.0028,-0.015 -0.01023,-0.038 -0.01326,-0.053 -0.02069,-0.1001 -0.04959,-0.2091 -0.07956,-0.3057 -0.03059,-0.098 -0.05309,-0.1849 -0.09283,-0.2789 -0.07946,-0.1883 -0.192123,-0.3641 -0.304996,-0.5315 -0.112873,-0.1674 -0.229236,-0.336 -0.371302,-0.4783 -0.142065,-0.1424 -0.297086,-0.2589 -0.464125,-0.3721 -0.25056,-0.1697 -0.527275,-0.3066 -0.822166,-0.3986 l -0.01326,0 c -0.293172,-0.091 -0.592168,-0.1462 -0.914991,-0.1462 l 2e-6,0 1.2e-5,0 z m 0,1.0099 c 0.342073,0 0.655261,0.095 0.941513,0.2392 0.106969,0.054 0.209336,0.1154 0.304996,0.186 0.08747,0.065 0.175398,0.1226 0.251954,0.1993 0.09616,0.096 0.175564,0.2055 0.251955,0.3189 0.06438,0.096 0.123911,0.1999 0.172389,0.3056 0.009,0.02 0.01808,0.033 0.02652,0.053 0.02593,0.062 0.04622,0.1346 0.0663,0.1993 0.02151,0.069 0.03847,0.1279 0.05304,0.1993 0.01414,0.069 0.03253,0.141 0.03979,0.2126 0.0077,0.074 0.01326,0.1501 0.01326,0.2259 0,0.2941 -0.06484,0.5689 -0.172389,0.8238 -0.05378,0.1273 -0.122522,0.2454 -0.198912,0.3587 -0.152779,0.2266 -0.344049,0.4314 -0.570211,0.5846 -0.113081,0.076 -0.230883,0.1321 -0.35804,0.1861 -0.254315,0.1078 -0.528629,0.1727 -0.822167,0.1727 -0.07556,0 -0.151913,-0.01 -0.225432,-0.013 -0.140833,-0.014 -0.279751,-0.039 -0.411083,-0.079 l -0.01326,0 c -0.06461,-0.02 -0.123849,-0.053 -0.18565,-0.079 -0.01999,-0.01 -0.04665,-0.018 -0.0663,-0.026 -0.10547,-0.049 -0.196426,-0.095 -0.291737,-0.1595 -0.111749,-0.075 -0.223019,-0.1706 -0.318258,-0.2657 -0.144239,-0.1445 -0.273143,-0.3105 -0.3713,-0.4916 -0.163593,-0.3018 -0.251954,-0.642 -0.251954,-1.0098 0,-0.3677 0.08836,-0.7212 0.251954,-1.0231 0.09816,-0.1811 0.227061,-0.3471 0.3713,-0.4916 0.09616,-0.096 0.205177,-0.1759 0.318258,-0.2525 0.05655,-0.038 0.112152,-0.087 0.172391,-0.1196 0.301188,-0.1639 0.654154,-0.2523 1.021077,-0.2523 l 1e-6,-6e-4 -5e-6,0 z m 0,1.6078 c -0.312607,0 -0.570213,0.258 -0.570213,0.5714 0,0.3131 0.257606,0.558 0.570213,0.558 0.312608,0 0.55695,-0.2449 0.55695,-0.558 0,-0.3134 -0.244342,-0.5714 -0.55695,-0.5714 z"
         style="fill:#3c3c3c;fill-opacity:1;stroke:none;display:inline"
         sodipodi:nodetypes="ccsssccccsssssssssssssssssccccssccccccccsccccsccccccssscccsssssssssssssssssssssccsssssssssssssssssscccccscssssssssssssssccsssssssssscccssccccc" />
    </g>
  </g>
</svg>
